# Blender 4.0.2
# www.blender.org
o backlight_web
v 162.069992 19.793991 0.000000
v 169.550003 19.793991 0.000000
v 161.169998 17.001984 0.000000
v 139.109146 61.957886 0.000000
v 142.975754 60.493744 0.000000
v 141.963470 60.322281 0.000000
v 158.354996 53.447540 0.000000
v 158.444092 53.626602 0.000000
v 161.169998 52.014038 0.000000
v 154.491241 55.314178 0.000000
v 154.576355 55.495178 0.000000
v 150.629028 57.079224 0.000000
v 150.709412 57.262375 0.000000
v 145.554214 59.234299 0.000000
v 146.842667 58.928513 0.000000
v 146.764893 58.744232 0.000000
v 138.166382 61.398560 0.000000
v 135.243546 63.320694 0.000000
v 134.369186 62.400635 0.000000
v 130.571915 63.328506 0.000000
v 131.377487 64.582687 0.000000
v 126.774567 64.182175 0.000000
v 127.511658 65.743668 0.000000
v 122.977127 64.961639 0.000000
v 123.646744 66.803452 0.000000
v 119.179626 65.666870 0.000000
v 119.780548 67.762589 0.000000
v 108.186783 70.033340 0.000000
v 112.051102 69.377396 0.000000
v 108.164810 67.352798 0.000000
v 107.688797 67.587540 0.000000
v 107.767105 67.582413 0.000000
v 105.458359 67.587540 0.000000
v 104.321701 70.588486 0.000000
v 96.592987 71.395813 0.000000
v 96.393478 68.339417 0.000000
v 94.038940 68.697205 0.000000
v 92.728500 71.648117 0.000000
v 93.792542 68.886276 0.000000
v 88.864197 71.799500 0.000000
v 90.262924 68.851562 0.000000
v 88.797821 68.636383 0.000000
v 90.043304 68.631943 0.000000
v 90.027710 68.600327 0.000000
v 81.135788 71.799500 0.000000
v 79.737061 68.851562 0.000000
v 79.666672 68.886276 0.000000
v 79.437057 68.931946 0.000000
v 79.515381 68.926804 0.000000
v 73.406998 71.395813 0.000000
v 75.961044 68.697205 0.000000
v 73.606506 68.339417 0.000000
v 69.542831 71.042633 0.000000
v 69.808716 68.079590 0.000000
v 65.678284 70.588486 0.000000
v 66.010956 67.745514 0.000000
v 61.813202 70.033340 0.000000
v 62.081589 67.541870 0.000000
v 62.011200 67.507156 0.000000
v 57.948883 69.377396 0.000000
v 61.791580 67.287537 0.000000
v 58.415543 66.854645 0.000000
v 61.789520 67.283371 0.000000
v 75.857498 68.487228 0.000000
v 75.849915 68.449051 0.000000
v 54.617920 66.297867 0.000000
v 54.084015 68.620438 0.000000
v 47.022858 64.961639 0.000000
v 46.353241 66.803452 0.000000
v 50.219437 67.762589 0.000000
v 43.225418 64.182175 0.000000
v 42.488327 65.743668 0.000000
v 35.630798 62.400635 0.000000
v 38.622498 64.582687 0.000000
v 39.428070 63.328506 0.000000
v 31.833603 61.398560 0.000000
v 34.756439 63.320694 0.000000
v 27.024231 60.493744 0.000000
v 30.890839 61.957886 0.000000
v 28.036514 60.322281 0.000000
v 15.508743 55.314178 0.000000
v 15.423630 55.495178 0.000000
v 19.370956 57.079224 0.000000
v 11.644989 53.447540 0.000000
v 8.829987 52.014038 0.000000
v 11.555893 53.626602 0.000000
v 18.242477 11.133362 0.000000
v 17.781693 11.441238 0.000000
v 21.267975 13.758835 0.000000
v 23.101166 15.849182 0.000000
v 22.902313 15.888733 0.000000
v 42.160446 17.001984 0.000000
v 23.474991 15.694336 0.000000
v 23.643570 15.581696 0.000000
v 42.100006 16.580795 0.000000
v 24.236725 14.554306 0.000000
v 24.197174 14.753159 0.000000
v 22.699997 15.901993 0.000000
v 7.929993 19.793991 0.000000
v 7.929993 51.780167 0.000000
v 23.474991 13.009659 0.000000
v 23.474991 4.542328 0.000000
v 23.293152 12.919983 0.000000
v 0.449997 0.449997 0.000000
v 1.859985 7.772247 0.000000
v 1.896240 7.219254 0.000000
v 22.902313 1.663254 0.000000
v 23.101166 1.702805 0.000000
v 140.458817 1.702805 0.000000
v 21.357651 2.424988 0.000000
v 17.284668 3.858139 0.000000
v 21.267975 2.606827 0.000000
v 76.358749 68.926804 0.000000
v 77.271484 71.648117 0.000000
v 76.437057 68.931946 0.000000
v 24.197174 3.601166 0.000000
v 24.132004 3.793152 0.000000
v 42.220993 11.016632 0.000000
v 24.042328 3.974991 0.000000
v 24.042328 13.576996 0.000000
v 42.153687 11.214920 0.000000
v 19.755630 8.868759 0.000000
v 19.577499 9.393524 0.000000
v 22.497681 12.815247 0.000000
v 22.298828 4.697174 0.000000
v 19.755630 6.675735 0.000000
v 19.863754 7.219254 0.000000
v 19.332397 5.653946 0.000000
v 19.577499 6.150970 0.000000
v 21.603973 4.296005 0.000000
v 19.899994 7.772247 0.000000
v 19.863754 8.325226 0.000000
v 22.902313 4.736725 0.000000
v 23.643570 13.122299 0.000000
v 23.643570 4.429688 0.000000
v 42.100006 11.616196 0.000000
v 24.236725 14.149673 0.000000
v 24.250000 14.351990 0.000000
v 24.132004 14.945145 0.000000
v 42.153687 16.982056 0.000000
v 42.112823 16.776657 0.000000
v 23.293152 15.784012 0.000000
v 19.290573 57.262375 0.000000
v 23.235092 58.744232 0.000000
v 24.445770 59.234299 0.000000
v 23.157318 58.928513 0.000000
v 50.820358 65.666870 0.000000
v 8.829987 17.001984 0.000000
v 0.449997 19.793991 0.000000
v 24.197174 13.950821 0.000000
v 42.112823 11.420334 0.000000
v 24.132004 13.758835 0.000000
v 62.311188 67.587540 0.000000
v 64.541626 67.587540 0.000000
v 61.835175 67.352798 0.000000
v 61.886932 67.411804 0.000000
v 61.945938 67.463547 0.000000
v 62.155899 67.567093 0.000000
v 62.232880 67.582413 0.000000
v 75.882736 68.561554 0.000000
v 85.000000 71.849945 0.000000
v 85.000000 68.673508 0.000000
v 79.592346 68.911499 0.000000
v 75.917450 68.631943 0.000000
v 76.012802 68.756210 0.000000
v 76.071808 68.807953 0.000000
v 76.137054 68.851562 0.000000
v 76.207443 68.886276 0.000000
v 76.281769 68.911499 0.000000
v 81.202164 68.636383 0.000000
v 79.802322 68.807953 0.000000
v 79.861328 68.756210 0.000000
v 79.913071 68.697205 0.000000
v 79.956680 68.631943 0.000000
v 79.972275 68.600327 0.000000
v 100.457153 71.042633 0.000000
v 90.197662 68.807953 0.000000
v 90.562927 68.931946 0.000000
v 93.718216 68.911499 0.000000
v 93.641235 68.926804 0.000000
v 90.086914 68.697205 0.000000
v 90.484604 68.926804 0.000000
v 90.138657 68.756210 0.000000
v 90.333313 68.886276 0.000000
v 90.407639 68.911499 0.000000
v 93.562927 68.931946 0.000000
v 100.191269 68.079590 0.000000
v 93.862930 68.851562 0.000000
v 93.928177 68.807953 0.000000
v 93.987183 68.756210 0.000000
v 94.082535 68.631943 0.000000
v 94.117249 68.561554 0.000000
v 94.142487 68.487228 0.000000
v 94.150070 68.449051 0.000000
v 103.989029 67.745514 0.000000
v 107.844086 67.567093 0.000000
v 107.918396 67.541870 0.000000
v 107.988785 67.507156 0.000000
v 108.054047 67.463547 0.000000
v 108.113052 67.411804 0.000000
v 108.208405 67.287537 0.000000
v 111.584442 66.854645 0.000000
v 108.210464 67.283371 0.000000
v 115.382065 66.297867 0.000000
v 115.915970 68.620438 0.000000
v 43.686905 10.029266 0.000000
v 23.643570 1.970291 0.000000
v 23.796005 2.103973 0.000000
v 139.517654 13.576996 0.000000
v 139.630295 13.408417 0.000000
v 127.846298 11.214920 0.000000
v 162.069992 51.780167 0.000000
v 158.883606 11.972595 0.000000
v 159.436600 12.008835 0.000000
v 127.778992 11.016632 0.000000
v 139.630295 4.143570 0.000000
v 139.517654 3.974991 0.000000
v 127.686371 10.828827 0.000000
v 126.714340 10.082962 0.000000
v 126.912628 10.150269 0.000000
v 139.362808 2.798828 0.000000
v 143.696243 7.219254 0.000000
v 143.804352 6.675735 0.000000
v 141.261169 4.697174 0.000000
v 139.763977 2.103973 0.000000
v 126.313080 10.029266 0.000000
v 139.630295 2.256409 0.000000
v 141.453156 4.632004 0.000000
v 141.634995 4.542328 0.000000
v 139.427979 3.793152 0.000000
v 127.570038 10.654724 0.000000
v 139.916412 1.970291 0.000000
v 139.763977 13.255981 0.000000
v 139.763977 4.296005 0.000000
v 144.227585 5.653946 0.000000
v 142.089691 4.143570 0.000000
v 141.956009 4.296005 0.000000
v 142.292007 3.793152 0.000000
v 144.535477 5.193161 0.000000
v 142.357178 3.601166 0.000000
v 21.924988 13.009659 0.000000
v 22.106827 12.919983 0.000000
v 19.332397 9.890549 0.000000
v 21.924988 4.542328 0.000000
v 21.756409 4.429688 0.000000
v 19.024506 10.351318 0.000000
v 21.756409 13.122299 0.000000
v 21.357651 13.576996 0.000000
v 18.659119 10.767975 0.000000
v 21.470291 13.408417 0.000000
v 21.603973 13.255981 0.000000
v 21.202805 13.950821 0.000000
v 21.163254 14.149673 0.000000
v 3.517517 11.133362 0.000000
v 3.100861 10.767975 0.000000
v 17.284668 11.686356 0.000000
v 21.149994 14.351990 0.000000
v 6.096588 12.008835 0.000000
v 15.663391 12.008835 0.000000
v 16.759903 11.864487 0.000000
v 21.163254 14.554306 0.000000
v 21.202805 14.753159 0.000000
v 16.216385 11.972595 0.000000
v 21.267975 14.945145 0.000000
v 21.357651 15.126999 0.000000
v 21.470291 15.295578 0.000000
v 21.603973 15.448013 0.000000
v 21.756409 15.581696 0.000000
v 21.924988 15.694336 0.000000
v 22.106827 15.784012 0.000000
v 22.298828 15.849182 0.000000
v 22.497681 15.888733 0.000000
v 23.796005 15.448013 0.000000
v 23.929688 15.295578 0.000000
v 24.042328 15.126999 0.000000
v 23.293152 4.632004 0.000000
v 23.101166 12.854813 0.000000
v 22.699997 4.750000 0.000000
v 22.497681 4.736725 0.000000
v 22.106827 4.632004 0.000000
v 22.902313 12.815247 0.000000
v 22.699997 12.801987 0.000000
v 21.357651 3.974991 0.000000
v 19.024506 5.193161 0.000000
v 22.298828 12.854813 0.000000
v 142.202332 13.576996 0.000000
v 144.900864 10.767975 0.000000
v 142.089691 13.408417 0.000000
v 127.887161 11.420319 0.000000
v 127.431961 10.497299 0.000000
v 139.323257 2.997681 0.000000
v 139.427979 13.758835 0.000000
v 127.899994 11.616180 0.000000
v 139.362808 13.950821 0.000000
v 139.323257 14.149673 0.000000
v 139.309998 14.351990 0.000000
v 127.899994 16.580811 0.000000
v 139.323257 14.554306 0.000000
v 139.362808 14.753159 0.000000
v 139.427979 14.945145 0.000000
v 127.887161 16.776672 0.000000
v 139.517654 15.126999 0.000000
v 127.846298 16.982056 0.000000
v 139.630295 15.295578 0.000000
v 127.839539 17.001984 0.000000
v 139.763977 15.448013 0.000000
v 139.916412 15.581696 0.000000
v 140.084991 15.694336 0.000000
v 140.266830 15.784012 0.000000
v 140.458817 15.849182 0.000000
v 140.657684 15.888733 0.000000
v 140.859985 15.901993 0.000000
v 141.062302 15.888733 0.000000
v 141.261169 15.849182 0.000000
v 141.453156 15.784012 0.000000
v 141.634995 15.694336 0.000000
v 141.803574 15.581696 0.000000
v 141.956009 15.448013 0.000000
v 142.089691 15.295578 0.000000
v 147.896591 12.008835 0.000000
v 142.202332 15.126999 0.000000
v 147.343613 11.972595 0.000000
v 142.357178 14.753159 0.000000
v 142.292007 14.945145 0.000000
v 146.800079 11.864487 0.000000
v 142.396729 14.554306 0.000000
v 146.275314 11.686356 0.000000
v 142.409988 14.351990 0.000000
v 142.357178 13.950821 0.000000
v 142.396729 14.149673 0.000000
v 145.778290 11.441238 0.000000
v 142.292007 13.758835 0.000000
v 145.317520 11.133362 0.000000
v 141.803574 13.122299 0.000000
v 141.956009 13.255981 0.000000
v 144.535477 10.351318 0.000000
v 141.634995 13.009659 0.000000
v 144.227585 9.890549 0.000000
v 141.453156 12.919983 0.000000
v 141.261169 12.854813 0.000000
v 143.982483 9.393524 0.000000
v 141.062302 12.815247 0.000000
v 143.804352 8.868759 0.000000
v 140.859985 12.801987 0.000000
v 143.696243 8.325226 0.000000
v 140.657684 12.815247 0.000000
v 140.458817 12.854813 0.000000
v 140.084991 4.542328 0.000000
v 140.084991 13.009659 0.000000
v 140.266830 4.632004 0.000000
v 6.096588 3.535645 0.000000
v 15.663391 3.535645 0.000000
v 4.475311 11.686356 0.000000
v 3.978287 11.441238 0.000000
v 5.543610 3.571884 0.000000
v 5.000076 3.680008 0.000000
v 4.475311 3.858139 0.000000
v 3.978287 4.103241 0.000000
v 3.517517 4.411118 0.000000
v 3.100861 4.776520 0.000000
v 2.735474 5.193161 0.000000
v 2.427582 5.653946 0.000000
v 2.182480 6.150970 0.000000
v 2.004349 6.675735 0.000000
v 1.896240 8.325226 0.000000
v 2.004349 8.868759 0.000000
v 2.182480 9.393524 0.000000
v 2.427582 9.890549 0.000000
v 2.735474 10.351318 0.000000
v 5.000076 11.864487 0.000000
v 5.543610 11.972595 0.000000
v 21.202805 3.601166 0.000000
v 18.659119 4.776520 0.000000
v 21.163254 3.402313 0.000000
v 21.149994 3.199997 0.000000
v 18.242477 4.411118 0.000000
v 23.929688 4.143570 0.000000
v 23.796005 13.255981 0.000000
v 23.929688 13.408417 0.000000
v 21.202805 2.798828 0.000000
v 17.781693 4.103241 0.000000
v 21.163254 2.997681 0.000000
v 24.236725 3.402313 0.000000
v 42.313614 10.828827 0.000000
v 42.429947 10.654724 0.000000
v 24.236725 2.997681 0.000000
v 24.250000 3.199997 0.000000
v 42.568024 10.497299 0.000000
v 42.725449 10.359222 0.000000
v 42.899551 10.242889 0.000000
v 24.197174 2.798828 0.000000
v 16.216385 3.571884 0.000000
v 21.756409 1.970291 0.000000
v 22.699997 1.649994 0.000000
v 140.859985 1.649994 0.000000
v 23.474991 1.857651 0.000000
v 147.896591 3.535645 0.000000
v 141.803574 1.970291 0.000000
v 147.343613 3.571884 0.000000
v 169.550003 0.449997 0.000000
v 159.436600 3.535645 0.000000
v 163.903397 3.535645 0.000000
v 153.459900 11.864487 0.000000
v 153.984665 11.686356 0.000000
v 140.657684 1.663254 0.000000
v 142.089691 2.256409 0.000000
v 146.800079 3.680008 0.000000
v 141.956009 2.103973 0.000000
v 21.924988 1.857651 0.000000
v 22.106827 1.767975 0.000000
v 43.087357 10.150269 0.000000
v 24.132004 2.606827 0.000000
v 139.427979 2.606827 0.000000
v 139.517654 2.424988 0.000000
v 126.508942 10.042099 0.000000
v 140.657684 4.736725 0.000000
v 143.659988 7.772247 0.000000
v 152.363388 12.008835 0.000000
v 152.916382 11.972595 0.000000
v 157.318298 11.441238 0.000000
v 156.857513 11.133362 0.000000
v 154.481689 11.441238 0.000000
v 156.440857 10.767975 0.000000
v 154.942474 11.133362 0.000000
v 155.724518 10.351318 0.000000
v 155.359116 10.767975 0.000000
v 156.075470 10.351318 0.000000
v 155.899994 10.088699 0.000000
v 157.815323 11.686356 0.000000
v 158.340073 11.864487 0.000000
v 163.903397 12.008835 0.000000
v 164.456375 11.972595 0.000000
v 164.999908 11.864487 0.000000
v 165.524673 11.686356 0.000000
v 166.021698 11.441238 0.000000
v 166.482468 11.133362 0.000000
v 166.899124 10.767975 0.000000
v 167.264511 10.351318 0.000000
v 167.572403 9.890549 0.000000
v 167.817505 9.393524 0.000000
v 167.995636 8.868759 0.000000
v 168.139999 7.772247 0.000000
v 168.103745 8.325226 0.000000
v 168.103745 7.219254 0.000000
v 167.995636 6.675735 0.000000
v 167.817505 6.150970 0.000000
v 167.572403 5.653946 0.000000
v 167.264511 5.193161 0.000000
v 166.899124 4.776520 0.000000
v 166.482468 4.411118 0.000000
v 166.021698 4.103241 0.000000
v 165.524673 3.858139 0.000000
v 164.999908 3.680008 0.000000
v 164.456375 3.571884 0.000000
v 158.883606 3.571884 0.000000
v 152.916382 3.571884 0.000000
v 158.340073 3.680008 0.000000
v 153.459900 3.680008 0.000000
v 157.815323 3.858139 0.000000
v 153.984665 3.858139 0.000000
v 157.318298 4.103241 0.000000
v 154.481689 4.103241 0.000000
v 156.857513 4.411118 0.000000
v 154.942474 4.411118 0.000000
v 156.440857 4.776520 0.000000
v 155.359116 4.776520 0.000000
v 156.075470 5.193161 0.000000
v 155.724518 5.193161 0.000000
v 155.899994 5.455795 0.000000
v 152.363388 3.535645 0.000000
v 22.497681 1.663254 0.000000
v 22.298828 1.702805 0.000000
v 16.759903 3.680008 0.000000
v 21.603973 2.103973 0.000000
v 21.470291 2.256409 0.000000
v 21.267975 3.793152 0.000000
v 21.470291 4.143570 0.000000
v 23.101166 4.697174 0.000000
v 23.796005 4.296005 0.000000
v 24.042328 2.424988 0.000000
v 43.285645 10.082962 0.000000
v 23.929688 2.256409 0.000000
v 43.491043 10.042099 0.000000
v 140.266830 1.767975 0.000000
v 23.293152 1.767975 0.000000
v 140.084991 1.857651 0.000000
v 145.317520 4.411118 0.000000
v 142.409988 3.199997 0.000000
v 144.900864 4.776520 0.000000
v 145.778290 4.103241 0.000000
v 142.357178 2.798828 0.000000
v 142.396729 2.997681 0.000000
v 141.453156 1.767975 0.000000
v 146.275314 3.858139 0.000000
v 142.202332 2.424988 0.000000
v 142.292007 2.606827 0.000000
v 127.100433 10.242889 0.000000
v 139.309998 3.199997 0.000000
v 127.274536 10.359222 0.000000
v 139.323257 3.402313 0.000000
v 139.362808 3.601166 0.000000
v 139.916412 4.429688 0.000000
v 140.266830 12.919983 0.000000
v 139.916412 13.122299 0.000000
v 140.458817 4.697174 0.000000
v 140.859985 4.750000 0.000000
v 141.062302 4.736725 0.000000
v 143.982483 6.150970 0.000000
v 141.803574 4.429688 0.000000
v 142.202332 3.974991 0.000000
v 142.396729 3.402313 0.000000
v 141.634995 1.857651 0.000000
v 141.261169 1.702805 0.000000
v 141.062302 1.663254 0.000000
v 161.169998 17.001984 3.800000
v 169.550003 19.793991 3.800000
v 162.069992 19.793991 3.800000
v 141.963470 60.322281 3.800000
v 142.975754 60.493744 3.800000
v 139.109146 61.957886 3.800000
v 161.169998 52.014038 3.800000
v 158.444092 53.626602 3.800000
v 158.354996 53.447540 3.800000
v 154.576355 55.495178 3.800000
v 154.491241 55.314178 3.800000
v 150.709412 57.262375 3.800000
v 150.629028 57.079224 3.800000
v 146.764893 58.744232 3.800000
v 146.842667 58.928513 3.800000
v 145.554214 59.234299 3.800000
v 135.243546 63.320694 3.800000
v 138.166382 61.398560 3.800000
v 131.377487 64.582687 3.800000
v 130.571915 63.328506 3.800000
v 134.369186 62.400635 3.800000
v 127.511658 65.743668 3.800000
v 126.774567 64.182175 3.800000
v 123.646744 66.803452 3.800000
v 122.977127 64.961639 3.800000
v 119.780548 67.762589 3.800000
v 119.179626 65.666870 3.800000
v 108.164810 67.352798 3.800000
v 112.051102 69.377396 3.800000
v 108.186783 70.033340 3.800000
v 107.767105 67.582413 3.800000
v 107.688797 67.587540 3.800000
v 104.321701 70.588486 3.800000
v 105.458359 67.587540 3.800000
v 94.038940 68.697205 3.800000
v 96.393478 68.339417 3.800000
v 96.592987 71.395813 3.800000
v 93.792542 68.886276 3.800000
v 92.728500 71.648117 3.800000
v 88.797821 68.636383 3.800000
v 90.262924 68.851562 3.800000
v 88.864197 71.799500 3.800000
v 90.027710 68.600327 3.800000
v 90.043304 68.631943 3.800000
v 79.666672 68.886276 3.800000
v 79.737061 68.851562 3.800000
v 81.135788 71.799500 3.800000
v 79.515381 68.926804 3.800000
v 79.437057 68.931946 3.800000
v 73.606506 68.339417 3.800000
v 75.961044 68.697205 3.800000
v 73.406998 71.395813 3.800000
v 69.808716 68.079590 3.800000
v 69.542831 71.042633 3.800000
v 66.010956 67.745514 3.800000
v 65.678284 70.588486 3.800000
v 62.011200 67.507156 3.800000
v 62.081589 67.541870 3.800000
v 61.813202 70.033340 3.800000
v 58.415543 66.854645 3.800000
v 61.791580 67.287537 3.800000
v 57.948883 69.377396 3.800000
v 61.789520 67.283371 3.800000
v 75.849915 68.449051 3.800000
v 75.857498 68.487228 3.800000
v 54.084015 68.620438 3.800000
v 54.617920 66.297867 3.800000
v 50.219437 67.762589 3.800000
v 46.353241 66.803452 3.800000
v 47.022858 64.961639 3.800000
v 42.488327 65.743668 3.800000
v 43.225418 64.182175 3.800000
v 39.428070 63.328506 3.800000
v 38.622498 64.582687 3.800000
v 35.630798 62.400635 3.800000
v 34.756439 63.320694 3.800000
v 31.833603 61.398560 3.800000
v 28.036514 60.322281 3.800000
v 30.890839 61.957886 3.800000
v 27.024231 60.493744 3.800000
v 19.370956 57.079224 3.800000
v 15.423630 55.495178 3.800000
v 15.508743 55.314178 3.800000
v 11.555893 53.626602 3.800000
v 8.829987 52.014038 3.800000
v 11.644989 53.447540 3.800000
v 21.267975 13.758835 3.800000
v 17.781693 11.441238 3.800000
v 18.242477 11.133362 3.800000
v 42.160446 17.001984 3.800000
v 22.902313 15.888733 3.800000
v 23.101166 15.849182 3.800000
v 23.643570 15.581696 3.800000
v 23.474991 15.694336 3.800000
v 24.197174 14.753159 3.800000
v 24.236725 14.554306 3.800000
v 42.100006 16.580795 3.800000
v 22.699997 15.901993 3.800000
v 7.929993 51.780167 3.800000
v 7.929993 19.793991 3.800000
v 23.293152 12.919983 3.800000
v 23.474991 4.542328 3.800000
v 23.474991 13.009659 3.800000
v 1.896240 7.219254 3.800000
v 1.859985 7.772247 3.800000
v 0.449997 0.449997 3.800000
v 140.458817 1.702805 3.800000
v 23.101166 1.702805 3.800000
v 22.902313 1.663254 3.800000
v 21.267975 2.606827 3.800000
v 17.284668 3.858139 3.800000
v 21.357651 2.424988 3.800000
v 76.437057 68.931946 3.800000
v 77.271484 71.648117 3.800000
v 76.358749 68.926804 3.800000
v 42.220993 11.016632 3.800000
v 24.132004 3.793152 3.800000
v 24.197174 3.601166 3.800000
v 42.153687 11.214920 3.800000
v 24.042328 13.576996 3.800000
v 24.042328 3.974991 3.800000
v 22.497681 12.815247 3.800000
v 19.577499 9.393524 3.800000
v 19.755630 8.868759 3.800000
v 19.863754 7.219254 3.800000
v 19.755630 6.675735 3.800000
v 22.298828 4.697174 3.800000
v 21.603973 4.296005 3.800000
v 19.577499 6.150970 3.800000
v 19.332397 5.653946 3.800000
v 22.902313 4.736725 3.800000
v 19.863754 8.325226 3.800000
v 19.899994 7.772247 3.800000
v 23.643570 4.429688 3.800000
v 23.643570 13.122299 3.800000
v 24.250000 14.351990 3.800000
v 24.236725 14.149673 3.800000
v 42.100006 11.616196 3.800000
v 42.112823 16.776657 3.800000
v 42.153687 16.982056 3.800000
v 24.132004 14.945145 3.800000
v 23.293152 15.784012 3.800000
v 23.235092 58.744232 3.800000
v 19.290573 57.262375 3.800000
v 23.157318 58.928513 3.800000
v 24.445770 59.234299 3.800000
v 50.820358 65.666870 3.800000
v 0.449997 19.793991 3.800000
v 8.829987 17.001984 3.800000
v 24.132004 13.758835 3.800000
v 42.112823 11.420334 3.800000
v 24.197174 13.950821 3.800000
v 64.541626 67.587540 3.800000
v 62.311188 67.587540 3.800000
v 61.835175 67.352798 3.800000
v 61.886932 67.411804 3.800000
v 61.945938 67.463547 3.800000
v 62.155899 67.567093 3.800000
v 62.232880 67.582413 3.800000
v 75.882736 68.561554 3.800000
v 85.000000 68.673508 3.800000
v 85.000000 71.849945 3.800000
v 79.592346 68.911499 3.800000
v 75.917450 68.631943 3.800000
v 76.012802 68.756210 3.800000
v 76.071808 68.807953 3.800000
v 76.137054 68.851562 3.800000
v 76.207443 68.886276 3.800000
v 76.281769 68.911499 3.800000
v 79.802322 68.807953 3.800000
v 81.202164 68.636383 3.800000
v 79.861328 68.756210 3.800000
v 79.913071 68.697205 3.800000
v 79.956680 68.631943 3.800000
v 79.972275 68.600327 3.800000
v 100.457153 71.042633 3.800000
v 90.197662 68.807953 3.800000
v 90.562927 68.931946 3.800000
v 93.641235 68.926804 3.800000
v 93.718216 68.911499 3.800000
v 90.086914 68.697205 3.800000
v 90.484604 68.926804 3.800000
v 90.138657 68.756210 3.800000
v 90.333313 68.886276 3.800000
v 90.407639 68.911499 3.800000
v 93.562927 68.931946 3.800000
v 100.191269 68.079590 3.800000
v 93.862930 68.851562 3.800000
v 93.928177 68.807953 3.800000
v 93.987183 68.756210 3.800000
v 94.082535 68.631943 3.800000
v 94.117249 68.561554 3.800000
v 94.142487 68.487228 3.800000
v 94.150070 68.449051 3.800000
v 103.989029 67.745514 3.800000
v 107.844086 67.567093 3.800000
v 107.918396 67.541870 3.800000
v 107.988785 67.507156 3.800000
v 108.054047 67.463547 3.800000
v 108.113052 67.411804 3.800000
v 108.208405 67.287537 3.800000
v 108.210464 67.283371 3.800000
v 111.584442 66.854645 3.800000
v 115.382065 66.297867 3.800000
v 115.915970 68.620438 3.800000
v 23.796005 2.103973 3.800000
v 23.643570 1.970291 3.800000
v 43.686905 10.029266 3.800000
v 127.846298 11.214920 3.800000
v 139.630295 13.408417 3.800000
v 139.517654 13.576996 3.800000
v 162.069992 51.780167 3.800000
v 159.436600 12.008835 3.800000
v 158.883606 11.972595 3.800000
v 127.778992 11.016632 3.800000
v 127.686371 10.828827 3.800000
v 139.517654 3.974991 3.800000
v 139.630295 4.143570 3.800000
v 139.362808 2.798828 3.800000
v 126.912628 10.150269 3.800000
v 126.714340 10.082962 3.800000
v 141.261169 4.697174 3.800000
v 143.804352 6.675735 3.800000
v 143.696243 7.219254 3.800000
v 139.630295 2.256409 3.800000
v 126.313080 10.029266 3.800000
v 139.763977 2.103973 3.800000
v 141.634995 4.542328 3.800000
v 141.453156 4.632004 3.800000
v 127.570038 10.654724 3.800000
v 139.427979 3.793152 3.800000
v 139.916412 1.970291 3.800000
v 139.763977 4.296005 3.800000
v 139.763977 13.255981 3.800000
v 141.956009 4.296005 3.800000
v 142.089691 4.143570 3.800000
v 144.227585 5.653946 3.800000
v 142.357178 3.601166 3.800000
v 144.535477 5.193161 3.800000
v 142.292007 3.793152 3.800000
v 19.332397 9.890549 3.800000
v 22.106827 12.919983 3.800000
v 21.924988 13.009659 3.800000
v 21.756409 4.429688 3.800000
v 21.924988 4.542328 3.800000
v 21.756409 13.122299 3.800000
v 19.024506 10.351318 3.800000
v 21.357651 13.576996 3.800000
v 21.603973 13.255981 3.800000
v 21.470291 13.408417 3.800000
v 18.659119 10.767975 3.800000
v 21.202805 13.950821 3.800000
v 21.163254 14.149673 3.800000
v 3.100861 10.767975 3.800000
v 3.517517 11.133362 3.800000
v 17.284668 11.686356 3.800000
v 21.149994 14.351990 3.800000
v 15.663391 12.008835 3.800000
v 6.096588 12.008835 3.800000
v 21.163254 14.554306 3.800000
v 16.759903 11.864487 3.800000
v 21.202805 14.753159 3.800000
v 16.216385 11.972595 3.800000
v 21.267975 14.945145 3.800000
v 21.357651 15.126999 3.800000
v 21.470291 15.295578 3.800000
v 21.603973 15.448013 3.800000
v 21.756409 15.581696 3.800000
v 21.924988 15.694336 3.800000
v 22.106827 15.784012 3.800000
v 22.298828 15.849182 3.800000
v 22.497681 15.888733 3.800000
v 23.796005 15.448013 3.800000
v 23.929688 15.295578 3.800000
v 24.042328 15.126999 3.800000
v 23.101166 12.854813 3.800000
v 23.293152 4.632004 3.800000
v 22.497681 4.736725 3.800000
v 22.699997 4.750000 3.800000
v 22.106827 4.632004 3.800000
v 22.902313 12.815247 3.800000
v 22.699997 12.801987 3.800000
v 19.024506 5.193161 3.800000
v 21.357651 3.974991 3.800000
v 22.298828 12.854813 3.800000
v 142.089691 13.408417 3.800000
v 144.900864 10.767975 3.800000
v 142.202332 13.576996 3.800000
v 127.887161 11.420319 3.800000
v 127.431961 10.497299 3.800000
v 139.323257 2.997681 3.800000
v 139.427979 13.758835 3.800000
v 127.899994 11.616180 3.800000
v 139.362808 13.950821 3.800000
v 139.323257 14.149673 3.800000
v 139.309998 14.351990 3.800000
v 127.899994 16.580811 3.800000
v 139.323257 14.554306 3.800000
v 139.362808 14.753159 3.800000
v 139.427979 14.945145 3.800000
v 127.887161 16.776672 3.800000
v 139.517654 15.126999 3.800000
v 127.846298 16.982056 3.800000
v 139.630295 15.295578 3.800000
v 127.839539 17.001984 3.800000
v 139.763977 15.448013 3.800000
v 139.916412 15.581696 3.800000
v 140.084991 15.694336 3.800000
v 140.266830 15.784012 3.800000
v 140.458817 15.849182 3.800000
v 140.657684 15.888733 3.800000
v 140.859985 15.901993 3.800000
v 141.062302 15.888733 3.800000
v 141.261169 15.849182 3.800000
v 141.453156 15.784012 3.800000
v 141.634995 15.694336 3.800000
v 141.803574 15.581696 3.800000
v 141.956009 15.448013 3.800000
v 142.202332 15.126999 3.800000
v 147.896591 12.008835 3.800000
v 142.089691 15.295578 3.800000
v 142.292007 14.945145 3.800000
v 142.357178 14.753159 3.800000
v 147.343613 11.972595 3.800000
v 142.396729 14.554306 3.800000
v 146.800079 11.864487 3.800000
v 142.409988 14.351990 3.800000
v 146.275314 11.686356 3.800000
v 145.778290 11.441238 3.800000
v 142.396729 14.149673 3.800000
v 142.357178 13.950821 3.800000
v 145.317520 11.133362 3.800000
v 142.292007 13.758835 3.800000
v 144.535477 10.351318 3.800000
v 141.956009 13.255981 3.800000
v 141.803574 13.122299 3.800000
v 141.453156 12.919983 3.800000
v 144.227585 9.890549 3.800000
v 141.634995 13.009659 3.800000
v 141.261169 12.854813 3.800000
v 143.982483 9.393524 3.800000
v 141.062302 12.815247 3.800000
v 143.804352 8.868759 3.800000
v 140.859985 12.801987 3.800000
v 140.657684 12.815247 3.800000
v 143.696243 8.325226 3.800000
v 140.458817 12.854813 3.800000
v 140.266830 4.632004 3.800000
v 140.084991 13.009659 3.800000
v 140.084991 4.542328 3.800000
v 15.663391 3.535645 3.800000
v 6.096588 3.535645 3.800000
v 3.978287 11.441238 3.800000
v 4.475311 11.686356 3.800000
v 5.543610 3.571884 3.800000
v 5.000076 3.680008 3.800000
v 4.475311 3.858139 3.800000
v 3.978287 4.103241 3.800000
v 3.517517 4.411118 3.800000
v 3.100861 4.776520 3.800000
v 2.735474 5.193161 3.800000
v 2.427582 5.653946 3.800000
v 2.182480 6.150970 3.800000
v 2.004349 6.675735 3.800000
v 1.896240 8.325226 3.800000
v 2.004349 8.868759 3.800000
v 2.182480 9.393524 3.800000
v 2.427582 9.890549 3.800000
v 2.735474 10.351318 3.800000
v 5.000076 11.864487 3.800000
v 5.543610 11.972595 3.800000
v 18.659119 4.776520 3.800000
v 21.202805 3.601166 3.800000
v 21.149994 3.199997 3.800000
v 21.163254 3.402313 3.800000
v 18.242477 4.411118 3.800000
v 23.929688 13.408417 3.800000
v 23.796005 13.255981 3.800000
v 23.929688 4.143570 3.800000
v 21.163254 2.997681 3.800000
v 17.781693 4.103241 3.800000
v 21.202805 2.798828 3.800000
v 42.429947 10.654724 3.800000
v 42.313614 10.828827 3.800000
v 24.236725 3.402313 3.800000
v 42.568024 10.497299 3.800000
v 24.250000 3.199997 3.800000
v 24.236725 2.997681 3.800000
v 24.197174 2.798828 3.800000
v 42.899551 10.242889 3.800000
v 42.725449 10.359222 3.800000
v 21.756409 1.970291 3.800000
v 16.216385 3.571884 3.800000
v 140.859985 1.649994 3.800000
v 22.699997 1.649994 3.800000
v 23.474991 1.857651 3.800000
v 147.343613 3.571884 3.800000
v 141.803574 1.970291 3.800000
v 147.896591 3.535645 3.800000
v 163.903397 3.535645 3.800000
v 159.436600 3.535645 3.800000
v 169.550003 0.449997 3.800000
v 153.984665 11.686356 3.800000
v 153.459900 11.864487 3.800000
v 140.657684 1.663254 3.800000
v 141.956009 2.103973 3.800000
v 146.800079 3.680008 3.800000
v 142.089691 2.256409 3.800000
v 22.106827 1.767975 3.800000
v 21.924988 1.857651 3.800000
v 24.132004 2.606827 3.800000
v 43.087357 10.150269 3.800000
v 139.427979 2.606827 3.800000
v 139.517654 2.424988 3.800000
v 126.508942 10.042099 3.800000
v 143.659988 7.772247 3.800000
v 140.657684 4.736725 3.800000
v 152.363388 12.008835 3.800000
v 152.916382 11.972595 3.800000
v 154.481689 11.441238 3.800000
v 156.857513 11.133362 3.800000
v 157.318298 11.441238 3.800000
v 154.942474 11.133362 3.800000
v 156.440857 10.767975 3.800000
v 155.359116 10.767975 3.800000
v 155.724518 10.351318 3.800000
v 156.075470 10.351318 3.800000
v 155.899994 10.088699 3.800000
v 157.815323 11.686356 3.800000
v 158.340073 11.864487 3.800000
v 163.903397 12.008835 3.800000
v 164.456375 11.972595 3.800000
v 164.999908 11.864487 3.800000
v 165.524673 11.686356 3.800000
v 166.021698 11.441238 3.800000
v 166.482468 11.133362 3.800000
v 166.899124 10.767975 3.800000
v 167.264511 10.351318 3.800000
v 167.572403 9.890549 3.800000
v 167.817505 9.393524 3.800000
v 167.995636 8.868759 3.800000
v 168.103745 8.325226 3.800000
v 168.139999 7.772247 3.800000
v 168.103745 7.219254 3.800000
v 167.995636 6.675735 3.800000
v 167.817505 6.150970 3.800000
v 167.572403 5.653946 3.800000
v 167.264511 5.193161 3.800000
v 166.899124 4.776520 3.800000
v 166.482468 4.411118 3.800000
v 166.021698 4.103241 3.800000
v 165.524673 3.858139 3.800000
v 164.999908 3.680008 3.800000
v 164.456375 3.571884 3.800000
v 158.883606 3.571884 3.800000
v 152.916382 3.571884 3.800000
v 153.459900 3.680008 3.800000
v 158.340073 3.680008 3.800000
v 157.318298 4.103241 3.800000
v 153.984665 3.858139 3.800000
v 157.815323 3.858139 3.800000
v 156.857513 4.411118 3.800000
v 154.481689 4.103241 3.800000
v 156.440857 4.776520 3.800000
v 154.942474 4.411118 3.800000
v 155.359116 4.776520 3.800000
v 155.724518 5.193161 3.800000
v 156.075470 5.193161 3.800000
v 155.899994 5.455795 3.800000
v 152.363388 3.535645 3.800000
v 22.497681 1.663254 3.800000
v 22.298828 1.702805 3.800000
v 21.603973 2.103973 3.800000
v 16.759903 3.680008 3.800000
v 21.470291 2.256409 3.800000
v 21.267975 3.793152 3.800000
v 21.470291 4.143570 3.800000
v 23.101166 4.697174 3.800000
v 23.796005 4.296005 3.800000
v 24.042328 2.424988 3.800000
v 43.285645 10.082962 3.800000
v 23.929688 2.256409 3.800000
v 43.491043 10.042099 3.800000
v 23.293152 1.767975 3.800000
v 140.266830 1.767975 3.800000
v 140.084991 1.857651 3.800000
v 144.900864 4.776520 3.800000
v 142.409988 3.199997 3.800000
v 145.317520 4.411118 3.800000
v 142.396729 2.997681 3.800000
v 142.357178 2.798828 3.800000
v 145.778290 4.103241 3.800000
v 141.453156 1.767975 3.800000
v 142.292007 2.606827 3.800000
v 142.202332 2.424988 3.800000
v 146.275314 3.858139 3.800000
v 127.100433 10.242889 3.800000
v 139.309998 3.199997 3.800000
v 127.274536 10.359222 3.800000
v 139.323257 3.402313 3.800000
v 139.362808 3.601166 3.800000
v 139.916412 4.429688 3.800000
v 140.266830 12.919983 3.800000
v 139.916412 13.122299 3.800000
v 140.458817 4.697174 3.800000
v 140.859985 4.750000 3.800000
v 141.062302 4.736725 3.800000
v 143.982483 6.150970 3.800000
v 141.803574 4.429688 3.800000
v 142.202332 3.974991 3.800000
v 142.396729 3.402313 3.800000
v 141.634995 1.857651 3.800000
v 141.261169 1.702805 3.800000
v 141.062302 1.663254 3.800000
vn -0.0000 -0.0000 -1.0000
vn -0.0000 -0.0000 1.0000
vn -0.0000 1.0000 -0.0000
vn 1.0000 -0.0000 -0.0000
vn 0.4538 0.8911 -0.0000
vn 0.4350 0.9004 -0.0000
vn 0.4157 0.9095 -0.0000
vn 0.3957 0.9184 -0.0000
vn 0.3752 0.9269 -0.0000
vn 0.3541 0.9352 -0.0000
vn 0.3325 0.9431 -0.0000
vn 0.3103 0.9506 -0.0000
vn 0.2876 0.9577 -0.0000
vn 0.2644 0.9644 -0.0000
vn 0.2408 0.9706 -0.0000
vn 0.2167 0.9762 -0.0000
vn 0.1922 0.9814 -0.0000
vn 0.1673 0.9859 -0.0000
vn 0.1674 0.9859 -0.0000
vn 0.1422 0.9898 -0.0000
vn 0.1167 0.9932 -0.0000
vn 0.0910 0.9958 -0.0000
vn 0.0651 0.9979 -0.0000
vn 0.0391 0.9992 -0.0000
vn 0.0131 0.9999 -0.0000
vn -0.0131 0.9999 -0.0000
vn -0.0391 0.9992 -0.0000
vn -0.0651 0.9979 -0.0000
vn -0.0910 0.9958 -0.0000
vn -0.1167 0.9932 -0.0000
vn -0.1422 0.9898 -0.0000
vn -0.1674 0.9859 -0.0000
vn -0.1922 0.9814 -0.0000
vn -0.2167 0.9762 -0.0000
vn -0.2408 0.9706 -0.0000
vn -0.2644 0.9644 -0.0000
vn -0.2876 0.9577 -0.0000
vn -0.3103 0.9506 -0.0000
vn -0.3325 0.9431 -0.0000
vn -0.3541 0.9352 -0.0000
vn -0.3752 0.9269 -0.0000
vn -0.3957 0.9184 -0.0000
vn -0.4157 0.9095 -0.0000
vn -0.4350 0.9004 -0.0000
vn -0.4538 0.8911 -0.0000
vn -1.0000 -0.0000 -0.0000
vn -0.0000 -1.0000 -0.0000
vn 0.0654 0.9979 -0.0000
vn 0.1951 0.9808 -0.0000
vn 0.3214 0.9469 -0.0000
vn 0.4423 0.8969 -0.0000
vn 0.5556 0.8315 -0.0000
vn 0.6594 0.7518 -0.0000
vn 0.7518 0.6594 -0.0000
vn 0.8315 0.5556 -0.0000
vn 0.8969 0.4423 -0.0000
vn 0.9469 0.3214 -0.0000
vn 0.9808 0.1951 -0.0000
vn 0.9979 0.0653 -0.0000
vn 0.9979 -0.0653 -0.0000
vn 0.9808 -0.1951 -0.0000
vn 0.9471 -0.3210 -0.0000
vn 0.9470 -0.3213 -0.0000
vn 0.4538 -0.8911 -0.0000
vn 0.4350 -0.9004 -0.0000
vn 0.4157 -0.9095 -0.0000
vn 0.3957 -0.9184 -0.0000
vn 0.3752 -0.9269 -0.0000
vn 0.2900 -0.9570 -0.0000
vn 0.2727 -0.9621 -0.0000
vn 0.2552 -0.9669 -0.0000
vn 0.2374 -0.9714 -0.0000
vn 0.2193 -0.9757 -0.0000
vn 0.2011 -0.9796 -0.0000
vn 0.1826 -0.9832 -0.0000
vn 0.1639 -0.9865 -0.0000
vn 0.1451 -0.9894 -0.0000
vn 0.1261 -0.9920 -0.0000
vn 0.8967 -0.4426 -0.0000
vn 0.8960 -0.4440 -0.0000
vn 0.8316 -0.5554 -0.0000
vn 0.8315 -0.5555 -0.0000
vn 0.7518 -0.6594 -0.0000
vn 0.6593 -0.7519 -0.0000
vn 0.5556 -0.8315 -0.0000
vn 0.5556 -0.8314 -0.0000
vn 0.4423 -0.8969 -0.0000
vn 0.4423 -0.8968 -0.0000
vn 0.3214 -0.9469 -0.0000
vn 0.1952 -0.9808 -0.0000
vn 0.0653 -0.9979 -0.0000
vn 0.1069 -0.9943 -0.0000
vn 0.0876 -0.9962 -0.0000
vn 0.0683 -0.9977 -0.0000
vn 0.0488 -0.9988 -0.0000
vn 0.9808 -0.1948 -0.0000
vn 0.9469 -0.3217 -0.0000
vn 0.9469 -0.3215 -0.0000
vn 0.8969 -0.4423 -0.0000
vn 0.8315 -0.5556 -0.0000
vn 0.5557 -0.8314 -0.0000
vn 0.3213 -0.9470 -0.0000
vn 0.1950 -0.9808 -0.0000
vn 0.0655 -0.9979 -0.0000
vn -0.0655 -0.9979 -0.0000
vn -0.1951 -0.9808 -0.0000
vn -0.1950 -0.9808 -0.0000
vn -0.3214 -0.9469 -0.0000
vn -0.3213 -0.9470 -0.0000
vn -0.4423 -0.8968 -0.0000
vn -0.4423 -0.8969 -0.0000
vn -0.5556 -0.8314 -0.0000
vn -0.6593 -0.7519 -0.0000
vn -0.7518 -0.6594 -0.0000
vn -0.7519 -0.6593 -0.0000
vn -0.8315 -0.5556 -0.0000
vn -0.8968 -0.4424 -0.0000
vn 0.0293 -0.9996 -0.0000
vn 0.0098 -1.0000 -0.0000
vn -0.0098 -1.0000 -0.0000
vn -0.0293 -0.9996 -0.0000
vn 0.8968 -0.4424 -0.0000
vn 0.7519 -0.6593 -0.0000
vn 0.6594 -0.7518 -0.0000
vn 0.5555 -0.8315 -0.0000
vn -0.5557 -0.8314 -0.0000
vn -0.6594 -0.7518 -0.0000
vn -0.7517 -0.6595 -0.0000
vn -0.8316 -0.5554 -0.0000
vn -0.8969 -0.4423 -0.0000
vn -0.9469 -0.3217 -0.0000
vn -0.9469 -0.3215 -0.0000
vn -0.9808 -0.1948 -0.0000
vn -0.0488 -0.9988 -0.0000
vn -0.0683 -0.9977 -0.0000
vn -0.0876 -0.9962 -0.0000
vn -0.1069 -0.9943 -0.0000
vn -0.0653 -0.9979 -0.0000
vn -0.1952 -0.9808 -0.0000
vn -0.8954 -0.4453 -0.0000
vn -0.8967 -0.4426 -0.0000
vn -0.1261 -0.9920 -0.0000
vn -0.1451 -0.9894 -0.0000
vn -0.1639 -0.9865 -0.0000
vn -0.1826 -0.9832 -0.0000
vn -0.2011 -0.9796 -0.0000
vn -0.2193 -0.9757 -0.0000
vn -0.2374 -0.9714 -0.0000
vn -0.2552 -0.9669 -0.0000
vn -0.2727 -0.9621 -0.0000
vn -0.2900 -0.9570 -0.0000
vn -0.3752 -0.9269 -0.0000
vn -0.3957 -0.9184 -0.0000
vn -0.4157 -0.9095 -0.0000
vn -0.4350 -0.9004 -0.0000
vn -0.4538 -0.8911 -0.0000
vn -0.9470 -0.3213 -0.0000
vn -0.9472 -0.3206 -0.0000
vn -0.9808 -0.1952 -0.0000
vn -0.9808 -0.1951 -0.0000
vn -0.9979 -0.0654 -0.0000
vn -0.9979 -0.0653 -0.0000
vn -0.9979 0.0653 -0.0000
vn -0.9979 0.0654 -0.0000
vn -0.9808 0.1951 -0.0000
vn -0.9808 0.1952 -0.0000
vn -0.9469 0.3215 -0.0000
vn -0.9469 0.3214 -0.0000
vn -0.8968 0.4423 -0.0000
vn -0.8969 0.4423 -0.0000
vn -0.8315 0.5556 -0.0000
vn -0.8315 0.5555 -0.0000
vn -0.7518 0.6594 -0.0000
vn -0.6594 0.7518 -0.0000
vn -0.5556 0.8315 -0.0000
vn -0.4423 0.8969 -0.0000
vn -0.3214 0.9469 -0.0000
vn -0.1951 0.9808 -0.0000
vn -0.0654 0.9979 -0.0000
vn 0.6593 0.7518 -0.0000
vn 0.7518 0.6593 -0.0000
vn 0.9979 0.0654 -0.0000
vn 0.9979 -0.0654 -0.0000
vn 0.9469 -0.3214 -0.0000
vn 0.7518 -0.6593 -0.0000
vn 0.6593 -0.7518 -0.0000
vn 0.1951 -0.9808 -0.0000
vn 0.0654 -0.9979 -0.0000
vn -0.0654 -0.9979 -0.0000
vn -0.5556 -0.8315 -0.0000
vn -0.6593 -0.7518 -0.0000
vn -0.7518 -0.6593 -0.0000
vn -0.9469 -0.3214 -0.0000
vn -0.9979 -0.0655 -0.0000
vn -0.9979 0.0655 -0.0000
vn -0.7518 0.6593 -0.0000
vn -0.6593 0.7518 -0.0000
vn 0.1952 0.9808 -0.0000
vn 0.3215 0.9469 -0.0000
vn 0.4423 0.8968 -0.0000
vn 0.4422 0.8969 -0.0000
vn 0.5556 0.8314 -0.0000
vn 0.6593 0.7519 -0.0000
vn 0.7519 0.6593 -0.0000
vn 0.8314 0.5556 -0.0000
vn 0.8315 0.5555 -0.0000
vn 0.8969 0.4422 -0.0000
vn 0.8968 0.4424 -0.0000
vn 0.9470 0.3213 -0.0000
vn 0.9469 0.3215 -0.0000
vn 0.9808 0.1952 -0.0000
vn 0.9808 0.1950 -0.0000
vn 0.9808 -0.1950 -0.0000
vn 0.9808 -0.1952 -0.0000
vn 0.8969 -0.4422 -0.0000
vn 0.8314 -0.5556 -0.0000
vn 0.4422 -0.8969 -0.0000
vn 0.3215 -0.9469 -0.0000
vn -0.3215 -0.9469 -0.0000
vn -0.8315 -0.5555 -0.0000
vn -0.8314 -0.5556 -0.0000
vn -0.8969 -0.4422 -0.0000
vn -0.9808 -0.1950 -0.0000
vn -0.9808 0.1950 -0.0000
vn -0.8969 0.4422 -0.0000
vn -0.8968 0.4424 -0.0000
vn -0.8314 0.5556 -0.0000
vn -0.7519 0.6593 -0.0000
vn -0.4423 0.8968 -0.0000
vn -0.3215 0.9469 -0.0000
vn -0.1952 0.9808 -0.0000
vn -0.6593 0.7519 -0.0000
vn 0.1950 0.9808 -0.0000
vn -0.1950 0.9808 -0.0000
s 0
f 1//1 2//1 3//1
f 4//1 5//1 6//1
f 7//1 8//1 9//1
f 10//1 11//1 7//1
f 12//1 13//1 11//1
f 14//1 15//1 16//1
f 4//1 17//1 18//1
f 19//1 20//1 21//1
f 20//1 22//1 23//1
f 22//1 24//1 25//1
f 24//1 26//1 27//1
f 28//1 29//1 30//1
f 31//1 28//1 32//1
f 33//1 34//1 28//1
f 35//1 36//1 37//1
f 38//1 35//1 39//1
f 40//1 41//1 42//1
f 42//1 43//1 44//1
f 45//1 46//1 47//1
f 48//1 45//1 49//1
f 50//1 51//1 52//1
f 53//1 52//1 54//1
f 55//1 53//1 56//1
f 57//1 58//1 59//1
f 60//1 61//1 62//1
f 62//1 61//1 63//1
f 52//1 64//1 65//1
f 60//1 66//1 67//1
f 68//1 69//1 70//1
f 71//1 72//1 69//1
f 73//1 74//1 75//1
f 76//1 77//1 73//1
f 78//1 79//1 80//1
f 81//1 82//1 83//1
f 84//1 85//1 86//1
f 87//1 88//1 89//1
f 90//1 91//1 92//1
f 93//1 92//1 94//1
f 95//1 96//1 97//1
f 91//1 98//1 92//1
f 99//1 100//1 85//1
f 101//1 102//1 103//1
f 104//1 105//1 106//1
f 107//1 108//1 109//1
f 16//1 13//1 12//1
f 110//1 111//1 112//1
f 113//1 114//1 115//1
f 116//1 117//1 118//1
f 119//1 120//1 121//1
f 122//1 123//1 124//1
f 125//1 126//1 127//1
f 128//1 129//1 130//1
f 131//1 132//1 133//1
f 134//1 135//1 101//1
f 136//1 137//1 138//1
f 139//1 140//1 141//1
f 90//1 92//1 142//1
f 82//1 84//1 86//1
f 83//1 143//1 144//1
f 145//1 144//1 146//1
f 79//1 76//1 80//1
f 75//1 72//1 71//1
f 147//1 70//1 67//1
f 99//1 148//1 149//1
f 150//1 151//1 152//1
f 81//1 84//1 82//1
f 85//1 100//1 86//1
f 99//1 85//1 148//1
f 83//1 82//1 143//1
f 144//1 143//1 146//1
f 145//1 146//1 78//1
f 78//1 80//1 145//1
f 79//1 77//1 76//1
f 77//1 74//1 73//1
f 74//1 72//1 75//1
f 69//1 68//1 71//1
f 70//1 147//1 68//1
f 67//1 66//1 147//1
f 60//1 62//1 66//1
f 153//1 57//1 154//1
f 54//1 56//1 53//1
f 61//1 60//1 155//1
f 155//1 60//1 57//1
f 156//1 155//1 57//1
f 59//1 157//1 57//1
f 157//1 156//1 57//1
f 57//1 158//1 58//1
f 57//1 159//1 158//1
f 159//1 57//1 153//1
f 57//1 55//1 154//1
f 154//1 55//1 56//1
f 52//1 53//1 50//1
f 52//1 160//1 64//1
f 161//1 40//1 162//1
f 49//1 45//1 163//1
f 163//1 45//1 47//1
f 52//1 164//1 160//1
f 52//1 51//1 164//1
f 50//1 165//1 51//1
f 50//1 166//1 165//1
f 50//1 167//1 166//1
f 50//1 168//1 167//1
f 50//1 114//1 168//1
f 168//1 114//1 169//1
f 169//1 114//1 113//1
f 114//1 48//1 115//1
f 114//1 45//1 48//1
f 170//1 171//1 46//1
f 170//1 172//1 171//1
f 170//1 173//1 172//1
f 170//1 174//1 173//1
f 170//1 175//1 174//1
f 45//1 170//1 46//1
f 45//1 162//1 170//1
f 45//1 161//1 162//1
f 176//1 36//1 35//1
f 162//1 40//1 42//1
f 41//1 177//1 42//1
f 38//1 178//1 40//1
f 38//1 179//1 180//1
f 181//1 43//1 42//1
f 178//1 182//1 40//1
f 183//1 181//1 42//1
f 177//1 183//1 42//1
f 40//1 184//1 41//1
f 40//1 185//1 184//1
f 40//1 182//1 185//1
f 186//1 178//1 38//1
f 180//1 186//1 38//1
f 38//1 39//1 179//1
f 176//1 187//1 36//1
f 35//1 188//1 39//1
f 35//1 189//1 188//1
f 35//1 190//1 189//1
f 35//1 37//1 190//1
f 36//1 191//1 37//1
f 36//1 192//1 191//1
f 36//1 193//1 192//1
f 36//1 194//1 193//1
f 176//1 195//1 187//1
f 176//1 34//1 195//1
f 195//1 34//1 33//1
f 33//1 28//1 31//1
f 28//1 196//1 32//1
f 28//1 197//1 196//1
f 28//1 198//1 197//1
f 28//1 199//1 198//1
f 28//1 200//1 199//1
f 28//1 30//1 200//1
f 29//1 201//1 30//1
f 202//1 203//1 201//1
f 29//1 202//1 201//1
f 29//1 204//1 202//1
f 29//1 205//1 204//1
f 204//1 205//1 26//1
f 26//1 205//1 27//1
f 24//1 27//1 25//1
f 22//1 25//1 23//1
f 20//1 23//1 21//1
f 19//1 21//1 18//1
f 17//1 19//1 18//1
f 6//1 17//1 4//1
f 206//1 207//1 208//1
f 6//1 5//1 14//1
f 15//1 14//1 5//1
f 13//1 16//1 15//1
f 12//1 11//1 10//1
f 209//1 210//1 211//1
f 11//1 8//1 7//1
f 8//1 212//1 9//1
f 9//1 212//1 1//1
f 213//1 3//1 214//1
f 211//1 210//1 215//1
f 1//1 3//1 9//1
f 216//1 217//1 218//1
f 219//1 220//1 221//1
f 222//1 223//1 224//1
f 225//1 226//1 227//1
f 228//1 223//1 229//1
f 217//1 230//1 231//1
f 232//1 206//1 226//1
f 215//1 216//1 218//1
f 233//1 234//1 210//1
f 235//1 236//1 237//1
f 238//1 239//1 240//1
f 241//1 242//1 243//1
f 244//1 245//1 129//1
f 241//1 246//1 247//1
f 89//1 248//1 87//1
f 249//1 250//1 251//1
f 89//1 88//1 252//1
f 252//1 88//1 253//1
f 149//1 254//1 255//1
f 256//1 253//1 88//1
f 256//1 257//1 253//1
f 258//1 148//1 259//1
f 256//1 260//1 261//1
f 261//1 260//1 262//1
f 262//1 260//1 263//1
f 264//1 262//1 263//1
f 265//1 264//1 263//1
f 259//1 265//1 263//1
f 259//1 148//1 265//1
f 265//1 148//1 266//1
f 266//1 148//1 267//1
f 267//1 148//1 268//1
f 268//1 148//1 269//1
f 269//1 148//1 270//1
f 270//1 148//1 271//1
f 271//1 148//1 272//1
f 272//1 148//1 98//1
f 98//1 148//1 92//1
f 92//1 93//1 142//1
f 94//1 92//1 273//1
f 274//1 273//1 92//1
f 275//1 274//1 92//1
f 140//1 275//1 92//1
f 140//1 139//1 275//1
f 141//1 97//1 139//1
f 141//1 95//1 97//1
f 95//1 138//1 96//1
f 95//1 136//1 138//1
f 136//1 150//1 137//1
f 136//1 151//1 150//1
f 151//1 121//1 152//1
f 152//1 121//1 120//1
f 135//1 102//1 101//1
f 276//1 277//1 103//1
f 276//1 103//1 102//1
f 127//1 278//1 279//1
f 280//1 126//1 125//1
f 122//1 281//1 132//1
f 122//1 282//1 281//1
f 283//1 284//1 128//1
f 243//1 285//1 123//1
f 286//1 287//1 288//1
f 209//1 211//1 289//1
f 290//1 231//1 230//1
f 221//1 220//1 291//1
f 292//1 209//1 289//1
f 293//1 292//1 289//1
f 293//1 294//1 292//1
f 293//1 295//1 294//1
f 293//1 296//1 295//1
f 293//1 297//1 296//1
f 296//1 297//1 298//1
f 298//1 297//1 299//1
f 299//1 297//1 300//1
f 300//1 297//1 301//1
f 302//1 300//1 301//1
f 303//1 302//1 301//1
f 303//1 304//1 302//1
f 303//1 305//1 304//1
f 304//1 305//1 306//1
f 306//1 305//1 307//1
f 307//1 305//1 308//1
f 308//1 305//1 309//1
f 309//1 305//1 310//1
f 310//1 305//1 311//1
f 311//1 305//1 312//1
f 312//1 305//1 3//1
f 313//1 312//1 3//1
f 314//1 313//1 3//1
f 315//1 314//1 3//1
f 316//1 315//1 3//1
f 317//1 316//1 3//1
f 318//1 317//1 3//1
f 319//1 320//1 321//1
f 322//1 323//1 324//1
f 325//1 326//1 323//1
f 327//1 328//1 326//1
f 329//1 330//1 331//1
f 332//1 331//1 333//1
f 334//1 335//1 336//1
f 337//1 338//1 339//1
f 339//1 338//1 340//1
f 340//1 338//1 341//1
f 322//1 324//1 321//1
f 341//1 342//1 340//1
f 341//1 343//1 342//1
f 342//1 343//1 344//1
f 343//1 345//1 346//1
f 346//1 345//1 347//1
f 234//1 216//1 210//1
f 348//1 349//1 350//1
f 104//1 351//1 352//1
f 149//1 353//1 354//1
f 104//1 355//1 351//1
f 149//1 354//1 254//1
f 104//1 356//1 355//1
f 104//1 357//1 356//1
f 104//1 358//1 357//1
f 104//1 359//1 358//1
f 104//1 360//1 359//1
f 104//1 361//1 360//1
f 104//1 362//1 361//1
f 104//1 363//1 362//1
f 104//1 364//1 363//1
f 104//1 106//1 364//1
f 149//1 105//1 104//1
f 149//1 365//1 105//1
f 149//1 366//1 365//1
f 149//1 367//1 366//1
f 149//1 368//1 367//1
f 149//1 369//1 368//1
f 149//1 255//1 369//1
f 149//1 370//1 353//1
f 149//1 148//1 370//1
f 370//1 148//1 371//1
f 371//1 148//1 258//1
f 256//1 261//1 257//1
f 248//1 249//1 87//1
f 248//1 250//1 249//1
f 249//1 251//1 246//1
f 246//1 251//1 247//1
f 243//1 246//1 241//1
f 285//1 243//1 242//1
f 124//1 123//1 285//1
f 282//1 122//1 124//1
f 277//1 132//1 281//1
f 245//1 130//1 129//1
f 284//1 372//1 373//1
f 373//1 374//1 375//1
f 376//1 373//1 375//1
f 377//1 378//1 379//1
f 380//1 381//1 382//1
f 112//1 111//1 381//1
f 383//1 384//1 385//1
f 386//1 387//1 388//1
f 389//1 390//1 391//1
f 352//1 392//1 393//1
f 104//1 394//1 395//1
f 396//1 207//1 206//1
f 397//1 398//1 399//1
f 400//1 401//1 402//1
f 400//1 104//1 395//1
f 403//1 3//1 404//1
f 395//1 107//1 405//1
f 406//1 407//1 408//1
f 352//1 409//1 410//1
f 411//1 412//1 390//1
f 226//1 225//1 232//1
f 413//1 219//1 221//1
f 414//1 227//1 226//1
f 415//1 414//1 226//1
f 416//1 345//1 417//1
f 415//1 413//1 414//1
f 215//1 210//1 216//1
f 343//1 346//1 344//1
f 337//1 336//1 338//1
f 337//1 334//1 336//1
f 336//1 335//1 287//1
f 287//1 335//1 288//1
f 333//1 287//1 286//1
f 332//1 333//1 286//1
f 329//1 331//1 332//1
f 330//1 327//1 331//1
f 330//1 328//1 327//1
f 327//1 326//1 325//1
f 325//1 323//1 322//1
f 322//1 321//1 320//1
f 320//1 319//1 318//1
f 418//1 320//1 318//1
f 3//1 418//1 318//1
f 3//1 419//1 418//1
f 3//1 403//1 419//1
f 420//1 421//1 422//1
f 421//1 423//1 424//1
f 423//1 425//1 426//1
f 425//1 423//1 427//1
f 428//1 425//1 427//1
f 426//1 424//1 423//1
f 424//1 422//1 421//1
f 422//1 404//1 420//1
f 420//1 404//1 429//1
f 429//1 404//1 3//1
f 430//1 429//1 3//1
f 213//1 430//1 3//1
f 214//1 3//1 431//1
f 431//1 3//1 432//1
f 432//1 3//1 433//1
f 433//1 3//1 2//1
f 434//1 433//1 2//1
f 435//1 434//1 2//1
f 436//1 435//1 2//1
f 437//1 436//1 2//1
f 438//1 437//1 2//1
f 439//1 438//1 2//1
f 440//1 439//1 2//1
f 441//1 440//1 2//1
f 442//1 443//1 2//1
f 443//1 441//1 2//1
f 400//1 442//1 2//1
f 400//1 444//1 442//1
f 400//1 445//1 444//1
f 400//1 446//1 445//1
f 400//1 447//1 446//1
f 400//1 448//1 447//1
f 400//1 449//1 448//1
f 400//1 450//1 449//1
f 400//1 451//1 450//1
f 400//1 452//1 451//1
f 400//1 453//1 452//1
f 400//1 454//1 453//1
f 400//1 402//1 454//1
f 401//1 400//1 455//1
f 455//1 400//1 456//1
f 457//1 456//1 458//1
f 459//1 460//1 461//1
f 461//1 462//1 463//1
f 463//1 464//1 465//1
f 465//1 464//1 466//1
f 467//1 465//1 468//1
f 469//1 467//1 468//1
f 468//1 465//1 466//1
f 463//1 462//1 464//1
f 461//1 460//1 462//1
f 459//1 457//1 460//1
f 460//1 457//1 458//1
f 457//1 455//1 456//1
f 456//1 400//1 470//1
f 109//1 405//1 107//1
f 104//1 352//1 410//1
f 471//1 394//1 104//1
f 410//1 472//1 104//1
f 472//1 471//1 104//1
f 352//1 393//1 409//1
f 392//1 473//1 474//1
f 392//1 474//1 393//1
f 473//1 111//1 475//1
f 473//1 475//1 474//1
f 475//1 111//1 110//1
f 380//1 112//1 381//1
f 382//1 381//1 376//1
f 376//1 375//1 382//1
f 372//1 374//1 373//1
f 476//1 372//1 284//1
f 283//1 476//1 284//1
f 477//1 283//1 128//1
f 130//1 477//1 128//1
f 129//1 126//1 244//1
f 244//1 126//1 280//1
f 127//1 279//1 125//1
f 131//1 278//1 127//1
f 131//1 133//1 278//1
f 132//1 478//1 133//1
f 132//1 277//1 478//1
f 478//1 277//1 276//1
f 479//1 135//1 134//1
f 378//1 479//1 134//1
f 378//1 377//1 479//1
f 379//1 119//1 377//1
f 379//1 120//1 119//1
f 119//1 121//1 117//1
f 117//1 121//1 118//1
f 116//1 118//1 384//1
f 383//1 116//1 384//1
f 387//1 383//1 385//1
f 388//1 387//1 385//1
f 389//1 386//1 388//1
f 389//1 391//1 386//1
f 390//1 412//1 391//1
f 411//1 480//1 412//1
f 411//1 481//1 480//1
f 480//1 481//1 482//1
f 482//1 481//1 483//1
f 208//1 482//1 483//1
f 206//1 208//1 483//1
f 484//1 108//1 485//1
f 206//1 232//1 486//1
f 487//1 488//1 489//1
f 490//1 491//1 492//1
f 394//1 107//1 395//1
f 493//1 397//1 470//1
f 494//1 495//1 496//1
f 109//1 108//1 484//1
f 224//1 223//1 228//1
f 484//1 485//1 486//1
f 486//1 485//1 396//1
f 206//1 486//1 396//1
f 415//1 219//1 413//1
f 220//1 497//1 291//1
f 291//1 497//1 498//1
f 498//1 497//1 499//1
f 500//1 498//1 499//1
f 501//1 500//1 499//1
f 290//1 501//1 499//1
f 290//1 230//1 501//1
f 218//1 217//1 231//1
f 233//1 502//1 234//1
f 350//1 349//1 503//1
f 504//1 502//1 233//1
f 504//1 348//1 502//1
f 504//1 349//1 348//1
f 347//1 505//1 503//1
f 505//1 350//1 503//1
f 345//1 416//1 505//1
f 345//1 505//1 347//1
f 506//1 416//1 417//1
f 222//1 507//1 506//1
f 222//1 506//1 417//1
f 222//1 224//1 507//1
f 223//1 508//1 229//1
f 229//1 508//1 509//1
f 509//1 508//1 237//1
f 237//1 508//1 235//1
f 236//1 235//1 510//1
f 510//1 235//1 239//1
f 238//1 510//1 239//1
f 240//1 239//1 489//1
f 511//1 240//1 489//1
f 488//1 511//1 489//1
f 492//1 488//1 487//1
f 490//1 492//1 487//1
f 496//1 491//1 490//1
f 494//1 496//1 490//1
f 406//1 495//1 494//1
f 407//1 406//1 494//1
f 399//1 408//1 407//1
f 399//1 398//1 408//1
f 397//1 512//1 398//1
f 397//1 493//1 512//1
f 470//1 513//1 493//1
f 470//1 400//1 513//1
f 513//1 400//1 514//1
f 514//1 400//1 395//1
f 515//2 516//2 517//2
f 518//2 519//2 520//2
f 521//2 522//2 523//2
f 523//2 524//2 525//2
f 524//2 526//2 527//2
f 528//2 529//2 530//2
f 531//2 532//2 520//2
f 533//2 534//2 535//2
f 536//2 537//2 534//2
f 538//2 539//2 537//2
f 540//2 541//2 539//2
f 542//2 543//2 544//2
f 545//2 544//2 546//2
f 544//2 547//2 548//2
f 549//2 550//2 551//2
f 552//2 551//2 553//2
f 554//2 555//2 556//2
f 557//2 558//2 554//2
f 559//2 560//2 561//2
f 562//2 561//2 563//2
f 564//2 565//2 566//2
f 567//2 564//2 568//2
f 569//2 568//2 570//2
f 571//2 572//2 573//2
f 574//2 575//2 576//2
f 577//2 575//2 574//2
f 578//2 579//2 564//2
f 580//2 581//2 576//2
f 582//2 583//2 584//2
f 583//2 585//2 586//2
f 587//2 588//2 589//2
f 589//2 590//2 591//2
f 592//2 593//2 594//2
f 595//2 596//2 597//2
f 598//2 599//2 600//2
f 601//2 602//2 603//2
f 604//2 605//2 606//2
f 607//2 604//2 608//2
f 609//2 610//2 611//2
f 604//2 612//2 605//2
f 599//2 613//2 614//2
f 615//2 616//2 617//2
f 618//2 619//2 620//2
f 621//2 622//2 623//2
f 527//2 526//2 528//2
f 624//2 625//2 626//2
f 627//2 628//2 629//2
f 630//2 631//2 632//2
f 633//2 634//2 635//2
f 636//2 637//2 638//2
f 639//2 640//2 641//2
f 642//2 643//2 644//2
f 645//2 646//2 647//2
f 617//2 648//2 649//2
f 650//2 651//2 652//2
f 653//2 654//2 655//2
f 656//2 604//2 606//2
f 598//2 600//2 596//2
f 657//2 658//2 595//2
f 659//2 657//2 660//2
f 592//2 591//2 593//2
f 586//2 585//2 587//2
f 580//2 582//2 661//2
f 662//2 663//2 614//2
f 664//2 665//2 666//2
f 596//2 600//2 597//2
f 598//2 613//2 599//2
f 663//2 599//2 614//2
f 658//2 596//2 595//2
f 659//2 658//2 657//2
f 594//2 659//2 660//2
f 660//2 592//2 594//2
f 591//2 590//2 593//2
f 589//2 588//2 590//2
f 587//2 585//2 588//2
f 586//2 584//2 583//2
f 584//2 661//2 582//2
f 661//2 581//2 580//2
f 581//2 574//2 576//2
f 667//2 573//2 668//2
f 568//2 569//2 567//2
f 669//2 576//2 575//2
f 573//2 576//2 669//2
f 573//2 669//2 670//2
f 573//2 671//2 571//2
f 573//2 670//2 671//2
f 572//2 672//2 573//2
f 672//2 673//2 573//2
f 668//2 573//2 673//2
f 667//2 570//2 573//2
f 569//2 570//2 667//2
f 566//2 568//2 564//2
f 579//2 674//2 564//2
f 675//2 556//2 676//2
f 677//2 561//2 562//2
f 559//2 561//2 677//2
f 674//2 678//2 564//2
f 678//2 565//2 564//2
f 565//2 679//2 566//2
f 679//2 680//2 566//2
f 680//2 681//2 566//2
f 681//2 682//2 566//2
f 682//2 628//2 566//2
f 683//2 628//2 682//2
f 629//2 628//2 683//2
f 627//2 563//2 628//2
f 563//2 561//2 628//2
f 560//2 684//2 685//2
f 684//2 686//2 685//2
f 686//2 687//2 685//2
f 687//2 688//2 685//2
f 688//2 689//2 685//2
f 560//2 685//2 561//2
f 685//2 675//2 561//2
f 675//2 676//2 561//2
f 551//2 550//2 690//2
f 554//2 556//2 675//2
f 554//2 691//2 555//2
f 556//2 692//2 553//2
f 693//2 694//2 553//2
f 554//2 558//2 695//2
f 556//2 696//2 692//2
f 554//2 695//2 697//2
f 554//2 697//2 691//2
f 555//2 698//2 556//2
f 698//2 699//2 556//2
f 699//2 696//2 556//2
f 553//2 692//2 700//2
f 553//2 700//2 693//2
f 694//2 552//2 553//2
f 550//2 701//2 690//2
f 552//2 702//2 551//2
f 702//2 703//2 551//2
f 703//2 704//2 551//2
f 704//2 549//2 551//2
f 549//2 705//2 550//2
f 705//2 706//2 550//2
f 706//2 707//2 550//2
f 707//2 708//2 550//2
f 701//2 709//2 690//2
f 709//2 547//2 690//2
f 548//2 547//2 709//2
f 546//2 544//2 548//2
f 545//2 710//2 544//2
f 710//2 711//2 544//2
f 711//2 712//2 544//2
f 712//2 713//2 544//2
f 713//2 714//2 544//2
f 714//2 542//2 544//2
f 542//2 715//2 543//2
f 715//2 716//2 717//2
f 715//2 717//2 543//2
f 717//2 718//2 543//2
f 718//2 719//2 543//2
f 541//2 719//2 718//2
f 540//2 719//2 541//2
f 538//2 540//2 539//2
f 536//2 538//2 537//2
f 533//2 536//2 534//2
f 531//2 533//2 535//2
f 531//2 535//2 532//2
f 520//2 532//2 518//2
f 720//2 721//2 722//2
f 530//2 519//2 518//2
f 519//2 530//2 529//2
f 529//2 528//2 526//2
f 525//2 524//2 527//2
f 723//2 724//2 725//2
f 523//2 522//2 524//2
f 521//2 726//2 522//2
f 517//2 726//2 521//2
f 727//2 515//2 728//2
f 729//2 724//2 723//2
f 521//2 515//2 517//2
f 730//2 731//2 732//2
f 733//2 734//2 735//2
f 736//2 737//2 738//2
f 739//2 740//2 741//2
f 742//2 737//2 743//2
f 744//2 745//2 731//2
f 740//2 722//2 746//2
f 730//2 732//2 729//2
f 724//2 747//2 748//2
f 749//2 750//2 751//2
f 752//2 753//2 754//2
f 755//2 756//2 757//2
f 643//2 758//2 759//2
f 760//2 761//2 757//2
f 603//2 762//2 601//2
f 763//2 764//2 765//2
f 766//2 602//2 601//2
f 767//2 602//2 766//2
f 768//2 769//2 662//2
f 602//2 767//2 770//2
f 767//2 771//2 770//2
f 772//2 663//2 773//2
f 774//2 775//2 770//2
f 776//2 775//2 774//2
f 777//2 775//2 776//2
f 777//2 776//2 778//2
f 777//2 778//2 779//2
f 777//2 779//2 772//2
f 779//2 663//2 772//2
f 780//2 663//2 779//2
f 781//2 663//2 780//2
f 782//2 663//2 781//2
f 783//2 663//2 782//2
f 784//2 663//2 783//2
f 785//2 663//2 784//2
f 786//2 663//2 785//2
f 612//2 663//2 786//2
f 604//2 663//2 612//2
f 656//2 608//2 604//2
f 787//2 604//2 607//2
f 604//2 787//2 788//2
f 604//2 788//2 789//2
f 604//2 789//2 654//2
f 789//2 655//2 654//2
f 655//2 609//2 653//2
f 609//2 611//2 653//2
f 610//2 650//2 611//2
f 650//2 652//2 611//2
f 651//2 666//2 652//2
f 666//2 665//2 652//2
f 664//2 633//2 665//2
f 634//2 633//2 664//2
f 617//2 616//2 648//2
f 615//2 790//2 791//2
f 616//2 615//2 791//2
f 792//2 793//2 639//2
f 641//2 640//2 794//2
f 646//2 795//2 638//2
f 795//2 796//2 638//2
f 644//2 797//2 798//2
f 637//2 799//2 755//2
f 800//2 801//2 802//2
f 803//2 723//2 725//2
f 745//2 744//2 804//2
f 805//2 734//2 733//2
f 803//2 725//2 806//2
f 803//2 806//2 807//2
f 806//2 808//2 807//2
f 808//2 809//2 807//2
f 809//2 810//2 807//2
f 810//2 811//2 807//2
f 812//2 811//2 810//2
f 813//2 811//2 812//2
f 814//2 811//2 813//2
f 815//2 811//2 814//2
f 815//2 814//2 816//2
f 815//2 816//2 817//2
f 816//2 818//2 817//2
f 818//2 819//2 817//2
f 820//2 819//2 818//2
f 821//2 819//2 820//2
f 822//2 819//2 821//2
f 823//2 819//2 822//2
f 824//2 819//2 823//2
f 825//2 819//2 824//2
f 826//2 819//2 825//2
f 515//2 819//2 826//2
f 515//2 826//2 827//2
f 515//2 827//2 828//2
f 515//2 828//2 829//2
f 515//2 829//2 830//2
f 515//2 830//2 831//2
f 515//2 831//2 832//2
f 833//2 834//2 835//2
f 836//2 837//2 838//2
f 837//2 839//2 840//2
f 839//2 841//2 842//2
f 843//2 844//2 845//2
f 846//2 843//2 847//2
f 848//2 849//2 850//2
f 851//2 852//2 853//2
f 854//2 852//2 851//2
f 855//2 852//2 854//2
f 833//2 836//2 838//2
f 854//2 856//2 855//2
f 856//2 857//2 855//2
f 858//2 857//2 856//2
f 859//2 860//2 857//2
f 861//2 860//2 859//2
f 724//2 732//2 747//2
f 862//2 863//2 864//2
f 865//2 866//2 620//2
f 867//2 868//2 662//2
f 866//2 869//2 620//2
f 769//2 867//2 662//2
f 869//2 870//2 620//2
f 870//2 871//2 620//2
f 871//2 872//2 620//2
f 872//2 873//2 620//2
f 873//2 874//2 620//2
f 874//2 875//2 620//2
f 875//2 876//2 620//2
f 876//2 877//2 620//2
f 877//2 878//2 620//2
f 878//2 618//2 620//2
f 620//2 619//2 662//2
f 619//2 879//2 662//2
f 879//2 880//2 662//2
f 880//2 881//2 662//2
f 881//2 882//2 662//2
f 882//2 883//2 662//2
f 883//2 768//2 662//2
f 868//2 884//2 662//2
f 884//2 663//2 662//2
f 885//2 663//2 884//2
f 773//2 663//2 885//2
f 771//2 774//2 770//2
f 603//2 765//2 762//2
f 765//2 764//2 762//2
f 761//2 763//2 765//2
f 760//2 763//2 761//2
f 757//2 761//2 755//2
f 756//2 755//2 799//2
f 799//2 637//2 636//2
f 636//2 638//2 796//2
f 795//2 646//2 790//2
f 643//2 642//2 758//2
f 886//2 887//2 797//2
f 888//2 889//2 886//2
f 888//2 886//2 890//2
f 891//2 892//2 893//2
f 894//2 895//2 896//2
f 895//2 625//2 624//2
f 897//2 898//2 899//2
f 900//2 901//2 902//2
f 903//2 904//2 905//2
f 906//2 907//2 865//2
f 908//2 909//2 620//2
f 722//2 721//2 910//2
f 911//2 912//2 913//2
f 914//2 915//2 916//2
f 908//2 620//2 916//2
f 917//2 515//2 918//2
f 919//2 623//2 908//2
f 920//2 921//2 922//2
f 923//2 924//2 865//2
f 904//2 925//2 926//2
f 746//2 741//2 740//2
f 733//2 735//2 927//2
f 740//2 739//2 928//2
f 740//2 928//2 929//2
f 930//2 860//2 931//2
f 928//2 927//2 929//2
f 732//2 724//2 729//2
f 858//2 859//2 857//2
f 852//2 848//2 853//2
f 848//2 850//2 853//2
f 801//2 849//2 848//2
f 800//2 849//2 801//2
f 802//2 801//2 846//2
f 802//2 846//2 847//2
f 847//2 843//2 845//2
f 843//2 842//2 844//2
f 842//2 841//2 844//2
f 840//2 839//2 842//2
f 838//2 837//2 840//2
f 834//2 833//2 838//2
f 832//2 835//2 834//2
f 832//2 834//2 932//2
f 832//2 932//2 515//2
f 932//2 933//2 515//2
f 933//2 918//2 515//2
f 934//2 935//2 936//2
f 937//2 938//2 935//2
f 939//2 940//2 938//2
f 941//2 938//2 940//2
f 941//2 940//2 942//2
f 938//2 937//2 939//2
f 935//2 934//2 937//2
f 936//2 917//2 934//2
f 943//2 917//2 936//2
f 515//2 917//2 943//2
f 515//2 943//2 944//2
f 515//2 944//2 728//2
f 945//2 515//2 727//2
f 946//2 515//2 945//2
f 947//2 515//2 946//2
f 516//2 515//2 947//2
f 516//2 947//2 948//2
f 516//2 948//2 949//2
f 516//2 949//2 950//2
f 516//2 950//2 951//2
f 516//2 951//2 952//2
f 516//2 952//2 953//2
f 516//2 953//2 954//2
f 516//2 954//2 955//2
f 516//2 956//2 957//2
f 516//2 955//2 956//2
f 516//2 957//2 916//2
f 957//2 958//2 916//2
f 958//2 959//2 916//2
f 959//2 960//2 916//2
f 960//2 961//2 916//2
f 961//2 962//2 916//2
f 962//2 963//2 916//2
f 963//2 964//2 916//2
f 964//2 965//2 916//2
f 965//2 966//2 916//2
f 966//2 967//2 916//2
f 967//2 968//2 916//2
f 968//2 914//2 916//2
f 969//2 916//2 915//2
f 970//2 916//2 969//2
f 971//2 970//2 972//2
f 973//2 974//2 975//2
f 976//2 977//2 973//2
f 978//2 979//2 976//2
f 980//2 979//2 978//2
f 981//2 978//2 982//2
f 981//2 982//2 983//2
f 980//2 978//2 981//2
f 979//2 977//2 976//2
f 977//2 974//2 973//2
f 974//2 972//2 975//2
f 971//2 972//2 974//2
f 970//2 969//2 972//2
f 984//2 916//2 970//2
f 623//2 919//2 621//2
f 923//2 865//2 620//2
f 620//2 909//2 985//2
f 620//2 986//2 923//2
f 620//2 985//2 986//2
f 924//2 906//2 865//2
f 987//2 988//2 907//2
f 906//2 987//2 907//2
f 989//2 625//2 988//2
f 987//2 989//2 988//2
f 626//2 625//2 989//2
f 895//2 624//2 896//2
f 890//2 895//2 894//2
f 894//2 888//2 890//2
f 886//2 889//2 887//2
f 797//2 887//2 990//2
f 797//2 990//2 798//2
f 644//2 798//2 991//2
f 644//2 991//2 642//2
f 759//2 640//2 643//2
f 794//2 640//2 759//2
f 641//2 792//2 639//2
f 639//2 793//2 647//2
f 793//2 645//2 647//2
f 645//2 992//2 646//2
f 992//2 790//2 646//2
f 791//2 790//2 992//2
f 649//2 648//2 993//2
f 649//2 993//2 892//2
f 993//2 893//2 892//2
f 893//2 635//2 891//2
f 635//2 634//2 891//2
f 631//2 633//2 635//2
f 630//2 633//2 631//2
f 898//2 630//2 632//2
f 898//2 632//2 899//2
f 897//2 899//2 901//2
f 897//2 901//2 900//2
f 900//2 902//2 905//2
f 902//2 903//2 905//2
f 903//2 925//2 904//2
f 925//2 994//2 926//2
f 994//2 995//2 926//2
f 996//2 995//2 994//2
f 997//2 995//2 996//2
f 997//2 996//2 720//2
f 997//2 720//2 722//2
f 998//2 622//2 999//2
f 1000//2 746//2 722//2
f 1001//2 1002//2 1003//2
f 1004//2 1005//2 1006//2
f 908//2 623//2 909//2
f 984//2 913//2 1007//2
f 1008//2 1009//2 1010//2
f 999//2 622//2 621//2
f 743//2 737//2 736//2
f 1000//2 998//2 999//2
f 910//2 998//2 1000//2
f 910//2 1000//2 722//2
f 927//2 735//2 929//2
f 805//2 1011//2 734//2
f 1012//2 1011//2 805//2
f 1013//2 1011//2 1012//2
f 1013//2 1012//2 1014//2
f 1013//2 1014//2 1015//2
f 1013//2 1015//2 804//2
f 1015//2 745//2 804//2
f 744//2 731//2 730//2
f 747//2 1016//2 748//2
f 1017//2 863//2 862//2
f 748//2 1016//2 1018//2
f 1016//2 864//2 1018//2
f 864//2 863//2 1018//2
f 1017//2 1019//2 861//2
f 1017//2 862//2 1019//2
f 1019//2 931//2 860//2
f 861//2 1019//2 860//2
f 930//2 931//2 1020//2
f 1020//2 1021//2 738//2
f 930//2 1020//2 738//2
f 1021//2 736//2 738//2
f 742//2 1022//2 737//2
f 1023//2 1022//2 742//2
f 749//2 1022//2 1023//2
f 751//2 1022//2 749//2
f 1024//2 751//2 750//2
f 753//2 751//2 1024//2
f 753//2 1024//2 754//2
f 1001//2 753//2 752//2
f 1001//2 752//2 1025//2
f 1001//2 1025//2 1002//2
f 1003//2 1002//2 1004//2
f 1003//2 1004//2 1006//2
f 1006//2 1005//2 1008//2
f 1006//2 1008//2 1010//2
f 1010//2 1009//2 922//2
f 1010//2 922//2 921//2
f 921//2 920//2 911//2
f 920//2 912//2 911//2
f 912//2 1026//2 913//2
f 1026//2 1007//2 913//2
f 1007//2 1027//2 984//2
f 1027//2 916//2 984//2
f 1028//2 916//2 1027//2
f 908//2 916//2 1028//2
f 1//3 516//3 2//3
f 1//3 517//3 516//3
f 212//4 517//4 1//4
f 212//4 726//4 517//4
f 8//5 726//5 212//5
f 8//5 522//5 726//5
f 11//6 522//6 8//6
f 11//6 524//6 522//6
f 13//7 524//7 11//7
f 13//7 526//7 524//7
f 15//8 526//8 13//8
f 15//8 529//8 526//8
f 5//9 529//9 15//9
f 5//9 519//9 529//9
f 4//10 519//10 5//10
f 4//10 520//10 519//10
f 18//11 520//11 4//11
f 18//11 531//11 520//11
f 21//12 531//12 18//12
f 21//12 533//12 531//12
f 23//13 533//13 21//13
f 23//13 536//13 533//13
f 25//14 536//14 23//14
f 25//14 538//14 536//14
f 27//15 538//15 25//15
f 27//15 540//15 538//15
f 205//16 540//16 27//16
f 205//16 719//16 540//16
f 29//17 719//17 205//17
f 29//17 543//17 719//17
f 28//18 543//18 29//18
f 28//19 544//19 543//19
f 34//20 544//20 28//20
f 34//20 547//20 544//20
f 176//21 547//21 34//21
f 176//21 690//21 547//21
f 35//22 690//22 176//22
f 35//22 551//22 690//22
f 38//23 551//23 35//23
f 38//23 553//23 551//23
f 40//24 553//24 38//24
f 40//24 556//24 553//24
f 161//25 556//25 40//25
f 161//25 676//25 556//25
f 45//26 676//26 161//26
f 45//26 561//26 676//26
f 114//27 561//27 45//27
f 114//27 628//27 561//27
f 50//28 628//28 114//28
f 50//28 566//28 628//28
f 53//29 566//29 50//29
f 53//29 568//29 566//29
f 55//30 568//30 53//30
f 55//30 570//30 568//30
f 57//31 570//31 55//31
f 57//31 573//31 570//31
f 60//32 573//32 57//32
f 60//32 576//32 573//32
f 67//33 576//33 60//33
f 67//33 580//33 576//33
f 70//34 580//34 67//34
f 70//34 582//34 580//34
f 69//35 582//35 70//35
f 69//35 583//35 582//35
f 72//36 583//36 69//36
f 72//36 585//36 583//36
f 74//37 585//37 72//37
f 74//37 588//37 585//37
f 77//38 588//38 74//38
f 77//38 590//38 588//38
f 79//39 590//39 77//39
f 79//39 593//39 590//39
f 78//40 593//40 79//40
f 78//40 594//40 593//40
f 146//41 594//41 78//41
f 146//41 659//41 594//41
f 143//42 659//42 146//42
f 143//42 658//42 659//42
f 82//43 658//43 143//43
f 82//43 596//43 658//43
f 86//44 596//44 82//44
f 86//44 598//44 596//44
f 100//45 598//45 86//45
f 100//45 613//45 598//45
f 99//46 613//46 100//46
f 99//46 614//46 613//46
f 149//3 614//3 99//3
f 149//3 662//3 614//3
f 104//46 662//46 149//46
f 104//46 620//46 662//46
f 400//47 620//47 104//47
f 400//47 916//47 620//47
f 2//4 916//4 400//4
f 2//4 516//4 916//4
f 483//48 997//48 206//48
f 722//48 206//48 997//48
f 481//49 995//49 483//49
f 997//49 483//49 995//49
f 411//50 926//50 481//50
f 995//50 481//50 926//50
f 390//51 904//51 411//51
f 926//51 411//51 904//51
f 389//52 905//52 390//52
f 904//52 390//52 905//52
f 388//53 900//53 389//53
f 905//53 389//53 900//53
f 385//54 897//54 388//54
f 900//54 388//54 897//54
f 384//55 898//55 385//55
f 897//55 385//55 898//55
f 118//56 630//56 384//56
f 898//56 384//56 630//56
f 121//57 633//57 118//57
f 630//57 118//57 633//57
f 151//58 665//58 121//58
f 633//58 121//58 665//58
f 136//59 652//59 151//59
f 665//59 151//59 652//59
f 95//4 611//4 136//4
f 652//4 136//4 611//4
f 141//60 653//60 95//60
f 611//60 95//60 653//60
f 140//61 654//61 141//61
f 653//61 141//61 654//61
f 92//62 604//62 140//62
f 654//63 140//63 604//63
f 148//3 663//3 92//3
f 604//3 92//3 663//3
f 85//4 599//4 148//4
f 663//4 148//4 599//4
f 84//64 600//64 85//64
f 599//64 85//64 600//64
f 81//65 597//65 84//65
f 600//65 84//65 597//65
f 83//66 595//66 81//66
f 597//66 81//66 595//66
f 144//67 657//67 83//67
f 595//67 83//67 657//67
f 145//68 660//68 144//68
f 657//68 144//68 660//68
f 80//69 592//69 145//69
f 660//69 145//69 592//69
f 76//70 591//70 80//70
f 592//70 80//70 591//70
f 73//71 589//71 76//71
f 591//71 76//71 589//71
f 75//72 587//72 73//72
f 589//72 73//72 587//72
f 71//73 586//73 75//73
f 587//73 75//73 586//73
f 68//74 584//74 71//74
f 586//74 71//74 584//74
f 147//75 661//75 68//75
f 584//75 68//75 661//75
f 66//76 581//76 147//76
f 661//76 147//76 581//76
f 62//77 574//77 66//77
f 581//77 66//77 574//77
f 63//78 577//78 62//78
f 574//78 62//78 577//78
f 61//79 575//79 63//79
f 577//80 63//80 575//80
f 155//81 669//81 61//81
f 575//82 61//82 669//82
f 156//83 670//83 155//83
f 669//83 155//83 670//83
f 157//84 671//84 156//84
f 670//84 156//84 671//84
f 59//85 571//85 157//85
f 671//86 157//86 571//86
f 58//87 572//87 59//87
f 571//88 59//88 572//88
f 158//89 672//89 58//89
f 572//89 58//89 672//89
f 159//90 673//90 158//90
f 672//90 158//90 673//90
f 153//91 668//91 159//91
f 673//91 159//91 668//91
f 154//47 667//47 153//47
f 668//47 153//47 667//47
f 56//92 569//92 154//92
f 667//92 154//92 569//92
f 54//93 567//93 56//93
f 569//93 56//93 567//93
f 52//94 564//94 54//94
f 567//94 54//94 564//94
f 65//95 578//95 52//95
f 564//95 52//95 578//95
f 64//96 579//96 65//96
f 578//96 65//96 579//96
f 160//97 674//97 64//97
f 579//98 64//98 674//98
f 164//99 678//99 160//99
f 674//99 160//99 678//99
f 51//100 565//100 164//100
f 678//81 164//81 565//81
f 165//83 679//83 51//83
f 565//83 51//83 679//83
f 166//84 680//84 165//84
f 679//84 165//84 680//84
f 167//101 681//101 166//101
f 680//101 166//101 681//101
f 168//87 682//87 167//87
f 681//88 167//88 682//88
f 169//102 683//102 168//102
f 682//89 168//89 683//89
f 113//103 629//103 169//103
f 683//103 169//103 629//103
f 115//104 627//104 113//104
f 629//104 113//104 627//104
f 48//47 563//47 115//47
f 627//47 115//47 563//47
f 49//105 562//105 48//105
f 563//105 48//105 562//105
f 163//106 677//106 49//106
f 562//107 49//107 677//107
f 47//108 559//108 163//108
f 677//109 163//109 559//109
f 46//110 560//110 47//110
f 559//111 47//111 560//111
f 171//112 684//112 46//112
f 560//112 46//112 684//112
f 172//113 686//113 171//113
f 684//113 171//113 686//113
f 173//114 687//114 172//114
f 686//115 172//115 687//115
f 174//116 688//116 173//116
f 687//116 173//116 688//116
f 175//117 689//117 174//117
f 688//117 174//117 689//117
f 170//118 685//118 175//118
f 689//118 175//118 685//118
f 162//119 675//119 170//119
f 685//119 170//119 675//119
f 42//120 554//120 162//120
f 675//120 162//120 554//120
f 44//121 557//121 42//121
f 554//121 42//121 557//121
f 43//122 558//122 44//122
f 557//122 44//122 558//122
f 181//100 695//100 43//100
f 558//100 43//100 695//100
f 183//123 697//123 181//123
f 695//83 181//83 697//83
f 177//124 691//124 183//124
f 697//84 183//84 691//84
f 41//86 555//86 177//86
f 691//125 177//125 555//125
f 184//88 698//88 41//88
f 555//88 41//88 698//88
f 185//89 699//89 184//89
f 698//102 184//102 699//102
f 182//103 696//103 185//103
f 699//103 185//103 696//103
f 178//104 692//104 182//104
f 696//104 182//104 692//104
f 186//47 700//47 178//47
f 692//47 178//47 700//47
f 180//105 693//105 186//105
f 700//105 186//105 693//105
f 179//107 694//107 180//107
f 693//107 180//107 694//107
f 39//108 552//108 179//108
f 694//109 179//109 552//109
f 188//111 702//111 39//111
f 552//110 39//110 702//110
f 189//126 703//126 188//126
f 702//126 188//126 703//126
f 190//127 704//127 189//127
f 703//113 189//113 704//113
f 37//114 549//114 190//114
f 704//128 190//128 549//128
f 191//116 705//116 37//116
f 549//129 37//129 705//129
f 192//130 706//130 191//130
f 705//130 191//130 706//130
f 193//131 707//131 192//131
f 706//132 192//132 707//132
f 194//133 708//133 193//133
f 707//133 193//133 708//133
f 36//134 550//134 194//134
f 708//134 194//134 550//134
f 187//135 701//135 36//135
f 550//135 36//135 701//135
f 195//136 709//136 187//136
f 701//136 187//136 709//136
f 33//137 548//137 195//137
f 709//137 195//137 548//137
f 31//47 546//47 33//47
f 548//47 33//47 546//47
f 32//138 545//138 31//138
f 546//138 31//138 545//138
f 196//139 710//139 32//139
f 545//139 32//139 710//139
f 197//108 711//108 196//108
f 710//108 196//108 711//108
f 198//111 712//111 197//111
f 711//110 197//110 712//110
f 199//112 713//112 198//112
f 712//112 198//112 713//112
f 200//113 714//113 199//113
f 713//127 199//127 714//127
f 30//114 542//114 200//114
f 714//128 200//128 542//128
f 201//129 715//129 30//129
f 542//129 30//129 715//129
f 203//140 716//140 201//140
f 715//141 201//141 716//141
f 202//142 717//142 203//142
f 716//142 203//142 717//142
f 204//143 718//143 202//143
f 717//143 202//143 718//143
f 26//144 541//144 204//144
f 718//144 204//144 541//144
f 24//145 539//145 26//145
f 541//145 26//145 539//145
f 22//146 537//146 24//146
f 539//146 24//146 537//146
f 20//147 534//147 22//147
f 537//147 22//147 534//147
f 19//148 535//148 20//148
f 534//148 20//148 535//148
f 17//149 532//149 19//149
f 535//149 19//149 532//149
f 6//150 518//150 17//150
f 532//150 17//150 518//150
f 14//151 530//151 6//151
f 518//151 6//151 530//151
f 16//152 528//152 14//152
f 530//152 14//152 528//152
f 12//153 527//153 16//153
f 528//153 16//153 527//153
f 10//154 525//154 12//154
f 527//154 12//154 525//154
f 7//155 523//155 10//155
f 525//155 10//155 523//155
f 9//156 521//156 7//156
f 523//156 7//156 521//156
f 3//46 515//46 9//46
f 521//46 9//46 515//46
f 305//3 819//3 3//3
f 515//3 3//3 819//3
f 303//157 817//157 305//157
f 819//158 305//158 817//158
f 301//159 815//159 303//159
f 817//160 303//160 815//160
f 297//161 811//161 301//161
f 815//162 301//162 811//162
f 293//46 807//46 297//46
f 811//46 297//46 807//46
f 289//163 803//163 293//163
f 807//164 293//164 803//164
f 211//165 723//165 289//165
f 803//166 289//166 723//166
f 215//167 729//167 211//167
f 723//168 211//168 729//168
f 218//169 730//169 215//169
f 729//170 215//170 730//170
f 231//171 744//171 218//171
f 730//172 218//172 744//172
f 290//173 804//173 231//173
f 744//173 231//173 804//173
f 499//174 1013//174 290//174
f 804//174 290//174 1013//174
f 497//175 1011//175 499//175
f 1013//175 499//175 1011//175
f 220//176 734//176 497//176
f 1011//176 497//176 734//176
f 219//177 735//177 220//177
f 734//177 220//177 735//177
f 415//178 929//178 219//178
f 735//178 219//178 929//178
f 226//179 740//179 415//179
f 929//179 415//179 740//179
f 206//3 722//3 226//3
f 740//3 226//3 722//3
f 285//49 799//49 124//49
f 636//49 124//49 799//49
f 242//50 756//50 285//50
f 799//50 285//50 756//50
f 241//51 757//51 242//51
f 756//51 242//51 757//51
f 247//52 760//52 241//52
f 757//52 241//52 760//52
f 251//180 763//180 247//180
f 760//180 247//180 763//180
f 250//181 764//181 251//181
f 763//181 251//181 764//181
f 248//55 762//55 250//55
f 764//55 250//55 762//55
f 89//56 601//56 248//56
f 762//56 248//56 601//56
f 252//57 766//57 89//57
f 601//57 89//57 766//57
f 253//58 767//58 252//58
f 766//58 252//58 767//58
f 257//182 771//182 253//182
f 767//182 253//182 771//182
f 261//183 774//183 257//183
f 771//183 257//183 774//183
f 262//61 776//61 261//61
f 774//61 261//61 776//61
f 264//184 778//184 262//184
f 776//184 262//184 778//184
f 265//99 779//99 264//99
f 778//99 264//99 779//99
f 266//100 780//100 265//100
f 779//100 265//100 780//100
f 267//185 781//185 266//185
f 780//185 266//185 781//185
f 268//186 782//186 267//186
f 781//186 267//186 782//186
f 269//85 783//85 268//85
f 782//85 268//85 783//85
f 270//87 784//87 269//87
f 783//87 269//87 784//87
f 271//89 785//89 270//89
f 784//89 270//89 785//89
f 272//187 786//187 271//187
f 785//187 271//187 786//187
f 98//188 612//188 272//188
f 786//188 272//188 612//188
f 91//189 605//189 98//189
f 612//189 98//189 605//189
f 90//106 606//106 91//106
f 605//106 91//106 606//106
f 142//108 656//108 90//108
f 606//108 90//108 656//108
f 93//111 608//111 142//111
f 656//111 142//111 608//111
f 94//190 607//190 93//190
f 608//190 93//190 607//190
f 273//191 787//191 94//191
f 607//191 94//191 787//191
f 274//192 788//192 273//192
f 787//192 273//192 788//192
f 275//116 789//116 274//116
f 788//116 274//116 789//116
f 139//130 655//130 275//130
f 789//130 275//130 655//130
f 97//193 609//193 139//193
f 655//193 139//193 609//193
f 96//160 610//160 97//160
f 609//160 97//160 610//160
f 138//194 650//194 96//194
f 610//194 96//194 650//194
f 137//195 651//195 138//195
f 650//195 138//195 651//195
f 150//165 666//165 137//165
f 651//165 137//165 666//165
f 152//168 664//168 150//168
f 666//168 150//168 664//168
f 120//170 634//170 152//170
f 664//170 152//170 634//170
f 379//171 891//171 120//171
f 634//171 120//171 891//171
f 378//196 892//196 379//196
f 891//196 379//196 892//196
f 134//197 649//197 378//197
f 892//197 378//197 649//197
f 101//175 617//175 134//175
f 649//175 134//175 617//175
f 103//176 615//176 101//176
f 617//176 101//176 615//176
f 277//177 790//177 103//177
f 615//177 103//177 790//177
f 281//178 795//178 277//178
f 790//178 277//178 795//178
f 282//179 796//179 281//179
f 795//179 281//179 796//179
f 124//48 636//48 282//48
f 796//48 282//48 636//48
f 347//49 861//49 346//49
f 859//198 346//198 861//198
f 503//199 1017//199 347//199
f 861//199 347//199 1017//199
f 349//200 863//200 503//200
f 1017//201 503//201 863//201
f 504//52 1018//52 349//52
f 863//202 349//202 1018//202
f 233//203 748//203 504//203
f 1018//53 504//53 748//53
f 210//54 724//54 233//54
f 748//204 233//204 724//204
f 209//205 725//205 210//205
f 724//206 210//206 725//206
f 292//207 806//207 209//207
f 725//208 209//208 806//208
f 294//209 808//209 292//209
f 806//210 292//210 808//210
f 295//211 809//211 294//211
f 808//212 294//212 809//212
f 296//59 810//59 295//59
f 809//182 295//182 810//182
f 298//183 812//183 296//183
f 810//60 296//60 812//60
f 299//213 813//213 298//213
f 812//214 298//214 813//214
f 300//98 814//98 299//98
f 813//63 299//63 814//63
f 302//99 816//99 300//99
f 814//215 300//215 816//215
f 304//82 818//82 302//82
f 816//216 302//216 818//216
f 306//123 820//123 304//123
f 818//83 304//83 820//83
f 307//124 821//124 306//124
f 820//84 306//84 821//84
f 308//86 822//86 307//86
f 821//85 307//85 822//85
f 309//217 823//217 308//217
f 822//88 308//88 823//88
f 310//218 824//218 309//218
f 823//218 309//218 824//218
f 311//187 825//187 310//187
f 824//103 310//103 825//103
f 312//188 826//188 311//188
f 825//188 311//188 826//188
f 313//189 827//189 312//189
f 826//189 312//189 827//189
f 314//106 828//106 313//106
f 827//107 313//107 828//107
f 315//219 829//219 314//219
f 828//108 314//108 829//108
f 316//111 830//111 315//111
f 829//110 315//110 830//110
f 317//190 831//190 316//190
f 830//190 316//190 831//190
f 318//127 832//127 317//127
f 831//127 317//127 832//127
f 319//115 835//115 318//115
f 832//114 318//114 835//114
f 321//220 833//220 319//220
f 835//221 319//221 833//221
f 324//130 836//130 321//130
f 833//222 321//222 836//222
f 323//132 837//132 324//132
f 836//132 324//132 837//132
f 326//223 839//223 323//223
f 837//223 323//223 839//223
f 328//161 841//161 326//161
f 839//161 326//161 841//161
f 330//164 844//164 328//164
f 841//164 328//164 844//164
f 329//224 845//224 330//224
f 844//224 330//224 845//224
f 332//167 847//167 329//167
f 845//167 329//167 847//167
f 286//225 802//225 332//225
f 847//226 332//226 802//226
f 288//227 800//227 286//227
f 802//172 286//172 800//172
f 335//173 849//173 288//173
f 800//228 288//228 849//228
f 334//174 850//174 335//174
f 849//174 335//174 850//174
f 337//175 853//175 334//175
f 850//175 334//175 853//175
f 339//229 851//229 337//229
f 853//176 337//176 851//176
f 340//177 854//177 339//177
f 851//230 339//230 854//230
f 342//178 856//178 340//178
f 854//231 340//231 856//231
f 344//179 858//179 342//179
f 856//179 342//179 858//179
f 346//48 859//48 344//48
f 858//48 344//48 859//48
f 355//48 869//48 351//48
f 866//48 351//48 869//48
f 356//49 870//49 355//49
f 869//49 355//49 870//49
f 357//50 871//50 356//50
f 870//50 356//50 871//50
f 358//51 872//51 357//51
f 871//51 357//51 872//51
f 359//52 873//52 358//52
f 872//52 358//52 873//52
f 360//180 874//180 359//180
f 873//53 359//53 874//53
f 361//181 875//181 360//181
f 874//181 360//181 875//181
f 362//55 876//55 361//55
f 875//55 361//55 876//55
f 363//56 877//56 362//56
f 876//56 362//56 877//56
f 364//57 878//57 363//57
f 877//57 363//57 878//57
f 106//58 618//58 364//58
f 878//58 364//58 618//58
f 105//182 619//182 106//182
f 618//182 106//182 619//182
f 365//183 879//183 105//183
f 619//183 105//183 879//183
f 366//61 880//61 365//61
f 879//61 365//61 880//61
f 367//184 881//184 366//184
f 880//184 366//184 881//184
f 368//99 882//99 367//99
f 881//99 367//99 882//99
f 369//100 883//100 368//100
f 882//100 368//100 883//100
f 255//185 768//185 369//185
f 883//185 369//185 768//185
f 254//186 769//186 255//186
f 768//186 255//186 769//186
f 354//85 867//85 254//85
f 769//85 254//85 867//85
f 353//87 868//87 354//87
f 867//87 354//87 868//87
f 370//89 884//89 353//89
f 868//89 353//89 884//89
f 371//187 885//187 370//187
f 884//187 370//187 885//187
f 258//188 773//188 371//188
f 885//188 371//188 773//188
f 259//47 772//47 258//47
f 773//47 258//47 772//47
f 263//189 777//189 259//189
f 772//189 259//189 777//189
f 260//106 775//106 263//106
f 777//106 263//106 775//106
f 256//108 770//108 260//108
f 775//108 260//108 770//108
f 88//111 602//111 256//111
f 770//111 256//111 602//111
f 87//190 603//190 88//190
f 602//190 88//190 603//190
f 249//191 765//191 87//191
f 603//191 87//191 765//191
f 246//192 761//192 249//192
f 765//192 249//192 761//192
f 243//116 755//116 246//116
f 761//116 246//116 755//116
f 123//130 637//130 243//130
f 755//130 243//130 637//130
f 122//193 638//193 123//193
f 637//193 123//193 638//193
f 132//160 646//160 122//160
f 638//160 122//160 646//160
f 131//161 647//161 132//161
f 646//161 132//161 647//161
f 127//164 639//164 131//164
f 647//164 131//164 639//164
f 126//165 640//165 127//165
f 639//165 127//165 640//165
f 129//168 643//168 126//168
f 640//168 126//168 643//168
f 128//170 644//170 129//170
f 643//170 129//170 644//170
f 284//171 797//171 128//171
f 644//171 128//171 797//171
f 373//196 886//196 284//196
f 797//196 284//196 886//196
f 376//174 890//174 373//174
f 886//174 373//174 890//174
f 381//175 895//175 376//175
f 890//175 376//175 895//175
f 111//176 625//176 381//176
f 895//176 381//176 625//176
f 473//177 988//177 111//177
f 625//177 111//177 988//177
f 392//178 907//178 473//178
f 988//178 473//178 907//178
f 352//179 865//179 392//179
f 907//179 392//179 865//179
f 351//3 866//3 352//3
f 865//3 352//3 866//3
f 399//48 911//48 397//48
f 913//48 397//48 911//48
f 407//49 921//49 399//49
f 911//49 399//49 921//49
f 494//50 1010//50 407//50
f 921//50 407//50 1010//50
f 490//51 1006//51 494//51
f 1010//51 494//51 1006//51
f 487//52 1003//52 490//52
f 1006//52 490//52 1003//52
f 489//53 1001//53 487//53
f 1003//53 487//53 1001//53
f 239//181 753//181 489//181
f 1001//54 489//54 753//54
f 235//55 751//55 239//55
f 753//55 239//55 751//55
f 508//56 1022//56 235//56
f 751//56 235//56 1022//56
f 223//57 737//57 508//57
f 1022//57 508//57 737//57
f 222//58 738//58 223//58
f 737//58 223//58 738//58
f 417//182 930//182 222//182
f 738//182 222//182 930//182
f 345//183 860//183 417//183
f 930//183 417//183 860//183
f 343//61 857//61 345//61
f 860//61 345//61 857//61
f 341//184 855//184 343//184
f 857//184 343//184 855//184
f 338//99 852//99 341//99
f 855//99 341//99 852//99
f 336//216 848//216 338//216
f 852//100 338//100 848//100
f 287//83 801//83 336//83
f 848//123 336//123 801//123
f 333//186 846//186 287//186
f 801//186 287//186 846//186
f 331//85 843//85 333//85
f 846//85 333//85 843//85
f 327//87 842//87 331//87
f 843//87 331//87 842//87
f 325//89 840//89 327//89
f 842//89 327//89 840//89
f 322//187 838//187 325//187
f 840//187 325//187 838//187
f 320//188 834//188 322//188
f 838//188 322//188 834//188
f 418//47 932//47 320//47
f 834//47 320//47 932//47
f 419//189 933//189 418//189
f 932//189 418//189 933//189
f 403//106 918//106 419//106
f 933//106 419//106 918//106
f 404//108 917//108 403//108
f 918//108 403//108 917//108
f 422//111 934//111 404//111
f 917//111 404//111 934//111
f 424//190 937//190 422//190
f 934//190 422//190 937//190
f 426//191 939//191 424//191
f 937//191 424//191 939//191
f 425//114 940//114 426//114
f 939//115 426//115 940//115
f 428//221 942//221 425//221
f 940//220 425//220 942//220
f 427//216 941//216 428//216
f 942//82 428//82 941//82
f 423//123 938//123 427//123
f 941//123 427//123 938//123
f 421//186 935//186 423//186
f 938//84 423//84 935//84
f 420//85 936//85 421//85
f 935//85 421//85 936//85
f 429//87 943//87 420//87
f 936//87 420//87 943//87
f 430//89 944//89 429//89
f 943//89 429//89 944//89
f 213//187 728//187 430//187
f 944//187 430//187 728//187
f 214//188 727//188 213//188
f 728//188 213//188 727//188
f 431//47 945//47 214//47
f 727//47 214//47 945//47
f 432//189 946//189 431//189
f 945//189 431//189 946//189
f 433//106 947//106 432//106
f 946//106 432//106 947//106
f 434//108 948//108 433//108
f 947//108 433//108 948//108
f 435//111 949//111 434//111
f 948//111 434//111 949//111
f 436//190 950//190 435//190
f 949//190 435//190 950//190
f 437//113 951//113 436//113
f 950//191 436//191 951//191
f 438//114 952//114 437//114
f 951//115 437//115 952//115
f 439//221 953//221 438//221
f 952//116 438//116 953//116
f 440//130 954//130 439//130
f 953//222 439//222 954//222
f 441//193 955//193 440//193
f 954//132 440//132 955//132
f 443//160 956//160 441//160
f 955//160 441//160 956//160
f 442//161 957//161 443//161
f 956//161 443//161 957//161
f 444//164 958//164 442//164
f 957//164 442//164 958//164
f 445//165 959//165 444//165
f 958//165 444//165 959//165
f 446//167 960//167 445//167
f 959//168 445//168 960//168
f 447//225 961//225 446//225
f 960//170 446//170 961//170
f 448//171 962//171 447//171
f 961//171 447//171 962//171
f 449//196 963//196 448//196
f 962//173 448//173 963//173
f 450//174 964//174 449//174
f 963//232 449//232 964//232
f 451//175 965//175 450//175
f 964//175 450//175 965//175
f 452//176 966//176 451//176
f 965//176 451//176 966//176
f 453//177 967//177 452//177
f 966//177 452//177 967//177
f 454//178 968//178 453//178
f 967//178 453//178 968//178
f 402//179 914//179 454//179
f 968//179 454//179 914//179
f 401//3 915//3 402//3
f 914//3 402//3 915//3
f 455//48 969//48 401//48
f 915//48 401//48 969//48
f 457//49 972//49 455//49
f 969//49 455//49 972//49
f 459//50 975//50 457//50
f 972//50 457//50 975//50
f 461//51 973//51 459//51
f 975//51 459//51 973//51
f 463//52 976//52 461//52
f 973//52 461//52 976//52
f 465//203 978//203 463//203
f 976//53 463//53 978//53
f 467//181 982//181 465//181
f 978//181 465//181 982//181
f 469//206 983//206 467//206
f 982//55 467//55 983//55
f 468//172 981//172 469//172
f 983//171 469//171 981//171
f 466//196 980//196 468//196
f 981//173 468//173 980//173
f 464//174 979//174 466//174
f 980//174 466//174 979//174
f 462//175 977//175 464//175
f 979//175 464//175 977//175
f 460//176 974//176 462//176
f 977//176 462//176 974//176
f 458//177 971//177 460//177
f 974//177 460//177 971//177
f 456//178 970//178 458//178
f 971//178 458//178 970//178
f 470//179 984//179 456//179
f 970//179 456//179 984//179
f 397//3 913//3 470//3
f 984//3 470//3 913//3
f 472//49 986//49 471//49
f 985//49 471//49 986//49
f 410//50 923//50 472//50
f 986//50 472//50 923//50
f 409//51 924//51 410//51
f 923//51 410//51 924//51
f 393//52 906//52 409//52
f 924//52 409//52 906//52
f 474//180 987//180 393//180
f 906//180 393//180 987//180
f 475//181 989//181 474//181
f 987//181 474//181 989//181
f 110//55 626//55 475//55
f 989//55 475//55 626//55
f 112//56 624//56 110//56
f 626//56 110//56 624//56
f 380//57 896//57 112//57
f 624//57 112//57 896//57
f 382//58 894//58 380//58
f 896//58 380//58 894//58
f 375//182 888//182 382//182
f 894//182 382//182 888//182
f 374//183 889//183 375//183
f 888//183 375//183 889//183
f 372//61 887//61 374//61
f 889//61 374//61 887//61
f 476//184 990//184 372//184
f 887//184 372//184 990//184
f 283//99 798//99 476//99
f 990//99 476//99 798//99
f 477//100 991//100 283//100
f 798//100 283//100 991//100
f 130//185 642//185 477//185
f 991//185 477//185 642//185
f 245//186 758//186 130//186
f 642//186 130//186 758//186
f 244//85 759//85 245//85
f 758//85 245//85 759//85
f 280//87 794//87 244//87
f 759//87 244//87 794//87
f 125//89 641//89 280//89
f 794//89 280//89 641//89
f 279//187 792//187 125//187
f 641//187 125//187 792//187
f 278//104 793//104 279//104
f 792//104 279//104 793//104
f 133//105 645//105 278//105
f 793//105 278//105 645//105
f 478//106 992//106 133//106
f 645//106 133//106 992//106
f 276//108 791//108 478//108
f 992//108 478//108 791//108
f 102//111 616//111 276//111
f 791//111 276//111 616//111
f 135//190 648//190 102//190
f 616//190 102//190 648//190
f 479//191 993//191 135//191
f 648//191 135//191 993//191
f 377//192 893//192 479//192
f 993//192 479//192 893//192
f 119//116 635//116 377//116
f 893//116 377//116 635//116
f 117//130 631//130 119//130
f 635//130 119//130 631//130
f 116//193 632//193 117//193
f 631//193 117//193 632//193
f 383//160 899//160 116//160
f 632//160 116//160 899//160
f 387//194 901//194 383//194
f 899//194 383//194 901//194
f 386//195 902//195 387//195
f 901//195 387//195 902//195
f 391//165 903//165 386//165
f 902//165 386//165 903//165
f 412//168 925//168 391//168
f 903//168 391//168 925//168
f 480//170 994//170 412//170
f 925//170 412//170 994//170
f 482//171 996//171 480//171
f 994//171 480//171 996//171
f 208//196 720//196 482//196
f 996//196 482//196 720//196
f 207//197 721//197 208//197
f 720//197 208//197 721//197
f 396//175 910//175 207//175
f 721//175 207//175 910//175
f 485//176 998//176 396//176
f 910//176 396//176 998//176
f 108//177 622//177 485//177
f 998//177 485//177 622//177
f 107//178 623//178 108//178
f 622//178 108//178 623//178
f 394//179 909//179 107//179
f 623//179 107//179 909//179
f 471//48 985//48 394//48
f 909//48 394//48 985//48
f 109//233 621//233 405//233
f 919//49 405//49 621//49
f 484//199 999//199 109//199
f 621//199 109//199 999//199
f 486//200 1000//200 484//200
f 999//201 484//201 1000//201
f 232//52 746//52 486//52
f 1000//202 486//202 746//202
f 225//203 741//203 232//203
f 746//53 232//53 741//53
f 227//54 739//54 225//54
f 741//204 225//204 739//204
f 414//205 928//205 227//205
f 739//206 227//206 928//206
f 413//207 927//207 414//207
f 928//208 414//208 927//208
f 221//209 733//209 413//209
f 927//210 413//210 733//210
f 291//211 805//211 221//211
f 733//212 221//212 805//212
f 498//59 1012//59 291//59
f 805//182 291//182 1012//182
f 500//183 1014//183 498//183
f 1012//60 498//60 1014//60
f 501//213 1015//213 500//213
f 1014//214 500//214 1015//214
f 230//98 745//98 501//98
f 1015//63 501//63 745//63
f 217//122 731//122 230//122
f 745//215 230//215 731//215
f 216//82 732//82 217//82
f 731//216 217//216 732//216
f 234//123 747//123 216//123
f 732//83 216//83 747//83
f 502//124 1016//124 234//124
f 747//84 234//84 1016//84
f 348//86 864//86 502//86
f 1016//85 502//85 864//85
f 350//217 862//217 348//217
f 864//88 348//88 862//88
f 505//218 1019//218 350//218
f 862//218 350//218 1019//218
f 416//187 931//187 505//187
f 1019//103 505//103 931//103
f 506//104 1020//104 416//104
f 931//104 416//104 1020//104
f 507//105 1021//105 506//105
f 1020//105 506//105 1021//105
f 224//106 736//106 507//106
f 1021//107 507//107 736//107
f 228//219 743//219 224//219
f 736//108 224//108 743//108
f 229//111 742//111 228//111
f 743//110 228//110 742//110
f 509//190 1023//190 229//190
f 742//190 229//190 1023//190
f 237//127 749//127 509//127
f 1023//127 509//127 749//127
f 236//115 750//115 237//115
f 749//114 237//114 750//114
f 510//220 1024//220 236//220
f 750//221 236//221 1024//221
f 238//117 754//117 510//117
f 1024//222 510//222 754//222
f 240//132 752//132 238//132
f 754//132 238//132 752//132
f 511//223 1025//223 240//223
f 752//223 240//223 1025//223
f 488//161 1002//161 511//161
f 1025//161 511//161 1002//161
f 492//164 1004//164 488//164
f 1002//164 488//164 1004//164
f 491//224 1005//224 492//224
f 1004//224 492//224 1005//224
f 496//167 1008//167 491//167
f 1005//167 491//167 1008//167
f 495//225 1009//225 496//225
f 1008//226 496//226 1009//226
f 406//227 922//227 495//227
f 1009//172 495//172 922//172
f 408//173 920//173 406//173
f 922//228 406//228 920//228
f 398//174 912//174 408//174
f 920//174 408//174 912//174
f 512//175 1026//175 398//175
f 912//175 398//175 1026//175
f 493//229 1007//229 512//229
f 1026//176 512//176 1007//176
f 513//177 1027//177 493//177
f 1007//230 493//230 1027//230
f 514//234 1028//234 513//234
f 1027//178 513//178 1028//178
f 395//179 908//179 514//179
f 1028//179 514//179 908//179
f 405//48 919//48 395//48
f 908//48 395//48 919//48
