# Blender 4.0.2
# www.blender.org
o button_trip
v 0.944530 5.763038 3.520000
v 0.889400 5.183800 0.000000
v 0.606557 5.466643 3.520000
v 9.650600 0.889400 0.000000
v 10.229838 0.944530 3.520000
v 9.933443 0.606557 3.520000
v -0.370599 3.485166 3.600000
v -0.370599 3.485166 3.520000
v -0.400000 3.036600 3.600000
v -0.370599 2.588034 3.520000
v -0.282901 2.147142 3.520000
v -0.370599 2.588034 3.600000
v -0.400000 3.036600 3.520000
v 0.000000 3.036600 0.000000
v 0.025979 2.640244 0.000000
v 3.036600 -0.400000 3.600000
v 3.036600 -0.400000 3.520000
v 7.503400 -0.400000 3.600000
v 0.889400 0.889400 0.000000
v 0.606557 0.606557 3.520000
v 0.310162 0.944530 3.520000
v 7.503400 0.000000 0.000000
v 3.036600 0.000000 0.000000
v 2.588034 -0.370599 3.520000
v 2.640244 0.025979 0.000000
v 9.595469 0.310162 3.520000
v 9.351965 0.627503 0.000000
v 8.818530 6.211605 3.520000
v 8.665457 5.842052 0.000000
v 8.392858 6.356101 3.520000
v 9.221700 6.012783 3.520000
v 9.933443 5.466643 3.600000
v 10.229838 5.128670 3.600000
v 9.933443 5.466643 3.520000
v 9.221700 0.060417 3.600000
v 8.392858 -0.282901 3.600000
v 8.818530 -0.138404 3.600000
v 0.025979 3.432956 0.000000
v 0.944530 5.763038 3.600000
v 1.318300 6.012783 3.600000
v 10.678405 4.351730 3.520000
v 10.479583 4.754900 3.600000
v 10.678405 4.351730 3.600000
v 10.910600 3.485166 3.520000
v 10.822901 3.926058 3.520000
v 10.910600 3.485166 3.600000
v 8.818530 -0.138404 3.520000
v 9.221700 0.060417 3.520000
v 1.318300 6.012783 3.520000
v 2.147142 -0.282901 3.520000
v 2.250670 0.103470 0.000000
v 0.060417 1.318300 3.520000
v 0.406827 1.518300 0.000000
v 0.060417 4.754900 3.600000
v 0.310162 5.128670 3.600000
v 0.944530 0.310162 3.600000
v 0.944530 0.310162 3.520000
v 9.912497 1.188035 0.000000
v 2.147142 -0.282901 3.600000
v 1.721470 -0.138404 3.520000
v 0.310162 5.128670 3.520000
v 0.627503 4.885165 0.000000
v 3.036600 6.073200 0.000000
v 2.588034 6.443799 3.520000
v 3.036600 6.473200 3.520000
v 1.318300 0.060417 3.600000
v 1.318300 0.060417 3.520000
v 2.588034 6.443799 3.600000
v 3.036600 6.473200 3.600000
v 7.899756 6.047222 0.000000
v 10.436530 3.822530 0.000000
v 7.503400 6.073200 0.000000
v 1.188035 0.627503 0.000000
v 2.640244 6.047222 0.000000
v -0.282901 3.926058 3.520000
v -0.282901 3.926058 3.600000
v -0.138404 4.351730 3.520000
v 2.250670 5.969730 0.000000
v 7.951966 6.443799 3.520000
v 7.951966 6.443799 3.600000
v 0.060417 1.318300 3.600000
v -0.138404 1.721470 3.600000
v 10.940000 3.036600 3.520000
v 10.940000 3.036600 3.600000
v 1.874544 0.231147 0.000000
v -0.138404 4.351730 3.600000
v 0.060417 4.754900 3.520000
v 0.103470 2.250670 0.000000
v 0.231147 4.198657 0.000000
v 0.103470 3.822530 0.000000
v 10.436530 2.250670 0.000000
v 10.514022 2.640244 0.000000
v 8.665457 0.231147 0.000000
v 9.021700 0.406827 0.000000
v 1.188035 5.445697 0.000000
v 1.518300 0.406827 0.000000
v 10.910600 2.588034 3.520000
v 7.503400 6.473200 3.520000
v 8.392858 6.356101 3.600000
v 8.818530 6.211605 3.600000
v 10.133173 1.518300 0.000000
v 10.479583 1.318300 3.520000
v 10.678405 1.721470 3.600000
v 10.479583 1.318300 3.600000
v 10.678405 1.721470 3.520000
v 0.627503 1.188035 0.000000
v 1.721470 -0.138404 3.600000
v 7.951966 -0.370599 3.520000
v 7.503400 -0.400000 3.520000
v 2.147142 6.356101 3.600000
v 8.392858 -0.282901 3.520000
v 7.899756 0.025979 0.000000
v 8.289330 0.103470 0.000000
v 0.406827 4.554900 0.000000
v 10.540000 3.036600 0.000000
v 1.721470 6.211605 3.600000
v 1.721470 6.211605 3.520000
v 10.308852 4.198657 0.000000
v 10.133173 4.554900 0.000000
v 7.951966 -0.370599 3.600000
v 2.147142 6.356101 3.520000
v 1.874544 5.842052 0.000000
v 8.289330 5.969730 0.000000
v 0.606557 0.606557 3.600000
v -0.282901 2.147142 3.600000
v -0.138404 1.721470 3.520000
v 0.231147 1.874544 0.000000
v 10.479583 4.754900 3.520000
v 9.912497 4.885165 0.000000
v 10.229838 5.128670 3.520000
v 10.822901 2.147142 3.520000
v 10.822901 3.926058 3.600000
v 9.933443 0.606557 3.600000
v 9.650600 5.183800 0.000000
v 9.595469 0.310162 3.600000
v 2.588034 -0.370599 3.600000
v 9.221700 6.012783 3.600000
v 0.606557 5.466643 3.600000
v 10.308852 1.874544 0.000000
v 9.021700 5.666373 0.000000
v 0.310162 0.944530 3.600000
v 9.595469 5.763038 3.520000
v 9.351965 5.445697 0.000000
v 9.595469 5.763038 3.600000
v 10.910600 2.588034 3.600000
v 7.503400 6.473200 3.600000
v 10.229838 0.944530 3.600000
v 10.822901 2.147142 3.600000
v 10.514022 3.432956 0.000000
v 1.518300 5.666373 0.000000
vn -0.6551 0.7471 -0.1127
vn 0.7470 -0.6552 -0.1127
vn -0.9979 0.0654 -0.0000
vn -0.9808 -0.1951 -0.0000
vn -0.9915 -0.0650 -0.1127
vn -0.0000 -1.0000 -0.0000
vn -0.7471 -0.6551 -0.1127
vn -0.9915 0.0650 -0.1127
vn -0.0000 -0.9936 -0.1129
vn -0.0650 -0.9915 -0.1127
vn 0.6551 -0.7471 -0.1127
vn 0.3194 0.9409 -0.1127
vn 0.4395 0.8912 -0.1127
vn 0.7518 0.6593 -0.0000
vn -0.0000 -0.0000 1.0000
vn 0.8969 0.4423 -0.0000
vn 0.9808 0.1951 -0.0000
vn 0.4423 -0.8969 -0.0000
vn -0.5556 0.8315 -0.0000
vn -0.1938 -0.9745 -0.1127
vn -0.8262 -0.5520 -0.1127
vn -0.6593 -0.7518 -0.0000
vn 0.7471 -0.6551 -0.1127
vn -0.3214 -0.9469 -0.0000
vn -0.7471 0.6551 -0.1127
vn -0.0650 0.9915 -0.1127
vn -0.9979 -0.0654 -0.0000
vn -0.4423 -0.8969 -0.0000
vn -0.0654 0.9979 -0.0000
vn -0.0000 -0.0000 -1.0000
vn -0.6551 -0.7471 -0.1127
vn -0.9469 0.3214 -0.0000
vn 0.1951 0.9808 -0.0000
vn 0.9979 0.0654 -0.0000
vn -0.3194 -0.9409 -0.1127
vn -0.8262 0.5520 -0.1127
vn -0.9745 -0.1938 -0.1127
vn -0.9409 0.3194 -0.1127
vn 0.4395 -0.8912 -0.1127
vn 0.9915 -0.0650 -0.1127
vn -0.0000 1.0000 -0.0000
vn 0.3214 -0.9469 -0.0000
vn 0.8262 -0.5520 -0.1127
vn 0.8969 -0.4423 -0.0000
vn 0.0650 -0.9915 -0.1127
vn 0.1951 -0.9808 -0.0000
vn 0.1938 -0.9745 -0.1127
vn -0.9808 0.1951 -0.0000
vn -0.8912 0.4395 -0.1127
vn -0.3214 0.9469 -0.0000
vn -0.4423 0.8969 -0.0000
vn 0.5520 -0.8262 -0.1127
vn 0.5556 -0.8315 -0.0000
vn -0.3194 0.9409 -0.1127
vn -0.4395 0.8912 -0.1127
vn 0.1938 0.9745 -0.1127
vn -0.9409 -0.3194 -0.1127
vn -0.5520 -0.8262 -0.1127
vn 0.8262 0.5520 -0.1127
vn 0.9745 -0.1938 -0.1127
vn -0.0000 0.9936 -0.1129
vn 0.0650 0.9915 -0.1127
vn 0.7518 -0.6593 -0.0000
vn 0.0654 -0.9979 -0.0000
vn 0.7470 0.6552 -0.1127
vn 0.3214 0.9469 -0.0000
vn -0.1938 0.9745 -0.1127
vn 0.9469 -0.3214 -0.0000
vn -0.1951 -0.9808 -0.0000
vn 0.8315 0.5556 -0.0000
vn 0.9409 0.3194 -0.1127
vn 0.4423 0.8969 -0.0000
vn -0.7518 0.6593 -0.0000
vn -0.5520 0.8262 -0.1127
vn -0.8969 0.4423 -0.0000
vn -0.5556 -0.8315 -0.0000
vn -0.0654 -0.9979 -0.0000
vn -0.9469 -0.3214 -0.0000
vn -0.8315 -0.5556 -0.0000
vn 0.5520 0.8262 -0.1127
vn 0.6551 0.7471 -0.1127
vn 0.5556 0.8315 -0.0000
vn 0.9979 -0.0654 -0.0000
vn 0.0654 0.9979 -0.0000
vn 0.9469 0.3214 -0.0000
vn -0.9745 0.1938 -0.1127
vn 0.9745 -0.1939 -0.1127
vn -0.4395 -0.8912 -0.1127
vn 0.8912 -0.4395 -0.1127
vn 0.6593 0.7518 -0.0000
vn 0.3194 -0.9409 -0.1127
vn 0.8912 0.4395 -0.1127
vn 0.9915 0.0650 -0.1127
vn -0.8969 -0.4423 -0.0000
vn -0.7518 -0.6593 -0.0000
vn -0.8912 -0.4395 -0.1127
vn -0.8315 0.5556 -0.0000
vn -0.6593 0.7518 -0.0000
vn 0.8315 -0.5556 -0.0000
vn 0.7471 0.6551 -0.1127
vn 0.9409 -0.3194 -0.1127
vn -0.1951 0.9808 -0.0000
vn 0.6593 -0.7518 -0.0000
vn 0.9808 -0.1951 -0.0000
vn 0.9745 0.1938 -0.1127
vn 0.9745 0.1939 -0.1127
s 0
f 1//1 2//1 3//1
f 4//2 5//2 6//2
f 7//3 8//3 9//3
f 10//4 11//4 12//4
f 10//5 13//5 14//5
f 15//5 10//5 14//5
f 16//6 17//6 18//6
f 19//7 20//7 21//7
f 13//8 8//8 14//8
f 9//3 8//3 13//3
f 22//9 17//9 23//9
f 24//10 25//10 23//10
f 4//11 26//11 27//11
f 28//12 29//12 30//12
f 31//13 29//13 28//13
f 32//14 33//14 34//14
f 35//15 36//15 37//15
f 14//8 8//8 38//8
f 39//15 36//15 40//15
f 41//16 42//16 43//16
f 44//17 45//17 46//17
f 35//18 47//18 48//18
f 40//19 49//19 39//19
f 24//20 50//20 51//20
f 52//21 53//21 21//21
f 54//15 36//15 55//15
f 56//22 20//22 57//22
f 23//10 17//10 24//10
f 4//23 58//23 5//23
f 50//24 59//24 60//24
f 61//25 2//25 62//25
f 63//26 64//26 65//26
f 10//27 12//27 13//27
f 60//28 66//28 67//28
f 65//29 68//29 69//29
f 70//30 71//30 72//30
f 68//15 36//15 69//15
f 19//31 73//31 57//31
f 39//19 49//19 1//19
f 63//30 71//30 74//30
f 75//32 76//32 77//32
f 74//30 71//30 78//30
f 79//33 80//33 30//33
f 81//15 36//15 82//15
f 83//34 46//34 84//34
f 85//35 51//35 60//35
f 77//32 76//32 86//32
f 62//36 87//36 61//36
f 15//37 88//37 10//37
f 19//30 71//30 73//30
f 89//38 90//38 77//38
f 91//30 71//30 92//30
f 93//30 71//30 94//30
f 13//27 12//27 9//27
f 95//30 71//30 2//30
f 47//39 93//39 48//39
f 96//30 71//30 85//30
f 97//40 92//40 83//40
f 65//41 69//41 98//41
f 37//42 36//42 47//42
f 99//15 36//15 100//15
f 33//15 36//15 42//15
f 58//43 101//43 102//43
f 103//44 104//44 105//44
f 30//33 80//33 99//33
f 21//21 53//21 106//21
f 107//28 66//28 60//28
f 22//45 108//45 109//45
f 110//15 36//15 68//15
f 111//46 36//46 108//46
f 108//47 112//47 113//47
f 8//48 76//48 75//48
f 89//30 71//30 90//30
f 87//49 114//49 77//49
f 57//31 20//31 19//31
f 92//30 71//30 115//30
f 116//50 110//50 117//50
f 118//30 71//30 119//30
f 117//51 49//51 116//51
f 94//52 26//52 48//52
f 48//53 26//53 35//53
f 108//46 36//46 120//46
f 117//54 121//54 122//54
f 122//55 49//55 117//55
f 62//30 71//30 114//30
f 30//56 123//56 79//56
f 124//22 20//22 56//22
f 77//38 90//38 75//38
f 12//4 11//4 125//4
f 103//15 36//15 104//15
f 126//57 88//57 127//57
f 11//57 88//57 126//57
f 57//58 96//58 67//58
f 128//59 129//59 130//59
f 97//60 131//60 92//60
f 47//42 36//42 111//42
f 98//61 63//61 65//61
f 98//62 79//62 72//62
f 125//15 36//15 12//15
f 132//15 36//15 46//15
f 5//63 133//63 6//63
f 109//64 120//64 18//64
f 114//30 71//30 89//30
f 34//65 130//65 134//65
f 28//66 99//66 100//66
f 43//15 36//15 132//15
f 113//30 71//30 93//30
f 135//15 36//15 35//15
f 79//62 70//62 72//62
f 94//30 71//30 27//30
f 108//47 113//47 111//47
f 25//30 71//30 23//30
f 80//15 36//15 99//15
f 27//52 26//52 94//52
f 64//67 78//67 121//67
f 105//68 131//68 103//68
f 24//69 136//69 50//69
f 116//15 36//15 110//15
f 33//70 42//70 130//70
f 116//51 49//51 40//51
f 45//71 71//71 41//71
f 28//72 137//72 31//72
f 61//73 138//73 3//73
f 49//74 95//74 1//74
f 86//75 54//75 77//75
f 60//24 59//24 107//24
f 109//9 17//9 22//9
f 18//6 17//6 109//6
f 128//59 119//59 129//59
f 101//30 71//30 139//30
f 51//20 25//20 24//20
f 29//12 123//12 30//12
f 5//43 58//43 102//43
f 35//53 26//53 135//53
f 67//76 66//76 57//76
f 51//35 50//35 60//35
f 140//30 71//30 29//30
f 4//30 71//30 58//30
f 117//50 110//50 121//50
f 30//66 99//66 28//66
f 106//7 19//7 21//7
f 2//30 71//30 62//30
f 17//77 136//77 24//77
f 125//78 126//78 82//78
f 141//79 81//79 21//79
f 7//48 76//48 8//48
f 11//78 126//78 125//78
f 10//37 88//37 11//37
f 142//80 143//80 31//80
f 134//81 143//81 142//81
f 130//70 42//70 128//70
f 100//72 137//72 28//72
f 31//82 144//82 142//82
f 138//15 36//15 39//15
f 136//15 36//15 59//15
f 34//14 33//14 130//14
f 134//81 142//81 34//81
f 72//61 63//61 98//61
f 84//83 145//83 83//83
f 98//41 69//41 146//41
f 120//15 36//15 18//15
f 137//82 144//82 31//82
f 1//1 95//1 2//1
f 123//56 70//56 79//56
f 124//15 36//15 141//15
f 46//15 36//15 84//15
f 6//11 26//11 4//11
f 98//84 80//84 79//84
f 132//85 45//85 43//85
f 119//30 71//30 129//30
f 75//86 90//86 8//86
f 131//87 91//87 92//87
f 46//17 45//17 132//17
f 3//25 2//25 61//25
f 60//88 96//88 85//88
f 121//54 78//54 122//54
f 18//15 36//15 16//15
f 147//63 133//63 5//63
f 105//89 102//89 139//89
f 146//84 80//84 98//84
f 103//68 131//68 148//68
f 83//40 92//40 115//40
f 67//88 96//88 60//88
f 123//30 71//30 70//30
f 83//83 145//83 97//83
f 129//30 71//30 134//30
f 64//67 74//67 78//67
f 62//36 114//36 87//36
f 106//30 71//30 19//30
f 50//69 136//69 59//69
f 128//16 42//16 41//16
f 84//15 36//15 145//15
f 57//76 66//76 56//76
f 86//15 36//15 54//15
f 34//90 144//90 32//90
f 104//15 36//15 147//15
f 44//34 46//34 83//34
f 105//44 104//44 102//44
f 66//15 36//15 56//15
f 16//15 36//15 136//15
f 51//30 71//30 25//30
f 102//89 101//89 139//89
f 37//18 47//18 35//18
f 141//15 36//15 81//15
f 113//91 93//91 47//91
f 31//13 140//13 29//13
f 139//30 71//30 91//30
f 118//92 119//92 128//92
f 76//15 36//15 86//15
f 55//15 36//15 138//15
f 115//93 149//93 83//93
f 41//92 118//92 128//92
f 41//71 71//71 118//71
f 58//30 71//30 101//30
f 142//90 144//90 34//90
f 126//94 81//94 82//94
f 59//15 36//15 107//15
f 42//15 36//15 43//15
f 143//80 140//80 31//80
f 8//86 90//86 38//86
f 141//95 20//95 124//95
f 21//95 20//95 141//95
f 126//96 53//96 52//96
f 127//96 53//96 126//96
f 52//94 81//94 126//94
f 21//79 81//79 52//79
f 61//97 54//97 55//97
f 69//15 36//15 146//15
f 87//97 54//97 61//97
f 77//75 54//75 87//75
f 133//15 36//15 135//15
f 3//98 138//98 1//98
f 144//15 36//15 32//15
f 108//64 120//64 109//64
f 102//99 104//99 5//99
f 16//77 136//77 17//77
f 72//30 71//30 63//30
f 130//100 129//100 134//100
f 111//91 113//91 47//91
f 83//93 149//93 44//93
f 1//98 138//98 39//98
f 148//15 36//15 103//15
f 77//49 114//49 89//49
f 150//74 95//74 49//74
f 56//15 36//15 124//15
f 55//73 138//73 61//73
f 139//101 91//101 105//101
f 22//30 71//30 112//30
f 121//102 68//102 64//102
f 7//15 36//15 76//15
f 73//30 71//30 96//30
f 73//58 96//58 57//58
f 40//15 36//15 116//15
f 100//15 36//15 137//15
f 5//99 104//99 147//99
f 146//15 36//15 80//15
f 90//30 71//30 38//30
f 63//26 74//26 64//26
f 107//15 36//15 66//15
f 82//15 36//15 125//15
f 133//103 26//103 6//103
f 135//103 26//103 133//103
f 145//104 131//104 97//104
f 148//104 131//104 145//104
f 64//29 68//29 65//29
f 110//102 68//102 121//102
f 48//39 93//39 94//39
f 44//105 149//105 45//105
f 147//15 36//15 133//15
f 145//15 36//15 148//15
f 112//30 71//30 113//30
f 27//30 71//30 4//30
f 85//30 71//30 51//30
f 23//30 71//30 22//30
f 14//30 71//30 15//30
f 43//85 45//85 41//85
f 38//30 71//30 14//30
f 105//101 91//101 131//101
f 137//15 36//15 144//15
f 32//15 36//15 33//15
f 150//55 49//55 122//55
f 78//30 71//30 122//30
f 22//45 112//45 108//45
f 29//30 71//30 123//30
f 9//15 36//15 7//15
f 12//15 36//15 9//15
f 122//30 71//30 150//30
f 150//30 71//30 95//30
f 143//30 71//30 140//30
f 134//30 71//30 143//30
f 15//30 71//30 88//30
f 88//30 71//30 127//30
f 115//30 71//30 149//30
f 149//106 71//106 45//106
f 53//30 71//30 106//30
f 127//30 71//30 53//30
