# Blender 4.0.2
# www.blender.org
o button_rocker
v 16.887058 1.262250 3.520000
v 15.408853 1.874543 0.000000
v 17.082012 1.836559 3.520000
v 13.803440 -1.442011 3.520000
v 14.377749 -1.247060 3.599999
v 13.803440 -1.442011 3.599999
v 14.377749 -1.247060 3.520000
v 15.614021 2.640244 0.000000
v 17.200333 2.431402 3.520000
v 13.208597 -1.560332 3.520000
v 12.999755 0.025978 0.000000
v 13.389330 0.103469 0.000000
v 15.881970 6.315171 3.520000
v 14.451964 5.445696 0.000000
v 15.425982 6.715061 3.520000
v 16.618813 5.354899 3.599999
v 16.281860 5.859182 3.520000
v 16.281860 5.859182 3.599999
v 16.618813 5.354899 3.520000
v 1.262250 -1.247060 3.520000
v 1.836559 -1.442011 3.599999
v 1.262250 -1.247060 3.599999
v 1.836559 -1.442011 3.520000
v 15.536530 3.822530 0.000000
v 15.408853 4.198656 0.000000
v 17.082012 4.236640 3.520000
v 15.614021 3.432956 0.000000
v 0.025978 3.432956 0.000000
v -1.560332 3.641797 3.520000
v 0.103469 3.822530 0.000000
v 14.377749 7.320259 3.520000
v 13.803440 7.515211 3.599999
v 14.377749 7.320259 3.599999
v 13.803440 7.515211 3.520000
v 2.431402 -1.560332 3.520000
v 2.250669 0.103469 0.000000
v 0.231147 4.198656 0.000000
v -0.978813 5.354899 3.520000
v 0.406827 4.554899 0.000000
v -1.247060 1.262250 3.520000
v -1.442011 1.836559 3.599999
v -1.442011 1.836559 3.520000
v -1.247060 1.262250 3.599999
v 12.999755 6.047221 0.000000
v 13.208597 7.633533 3.520000
v -0.978813 0.718300 3.520000
v -0.978813 0.718300 3.599999
v 0.627502 4.885164 0.000000
v -0.641862 5.859182 3.520000
v 1.518299 5.666372 0.000000
v 0.718300 7.052012 3.520000
v 1.262250 7.320259 3.520000
v 15.536530 2.250669 0.000000
v 0.406827 1.518299 0.000000
v 0.231147 1.874543 0.000000
v 0.214016 -0.641862 3.520000
v -0.241971 -0.241971 3.520000
v 1.188035 0.627502 0.000000
v 12.603399 7.673200 3.520000
v 0.214016 -0.641862 3.599999
v -0.241971 -0.241971 3.599999
v 16.887058 1.262250 3.599999
v 17.082012 1.836559 3.599999
v 14.750600 5.183800 0.000000
v 3.036599 -1.599999 3.520000
v 2.640244 0.025978 0.000000
v 3.036599 0.000000 0.000000
v 12.603399 -1.599999 3.520000
v 12.603399 0.000000 0.000000
v 17.240000 3.036599 3.599999
v 17.200333 3.641797 3.520000
v 17.200333 3.641797 3.599999
v 17.240000 3.036599 3.520000
v 12.603399 6.073199 0.000000
v -1.247060 4.810949 3.520000
v 15.639999 3.036599 0.000000
v 1.874543 5.842052 0.000000
v 1.836559 7.515211 3.520000
v 17.200333 2.431402 3.599999
v -1.442011 4.236640 3.520000
v -1.247060 4.810949 3.599999
v -1.442011 4.236640 3.599999
v 0.889400 0.889400 0.000000
v 0.103469 2.250669 0.000000
v -1.560332 2.431402 3.520000
v 0.025978 2.640244 0.000000
v 13.208597 7.633533 3.599999
v 7.419999 -0.080000 0.176000
v 7.419999 0.000000 0.000000
v 8.219999 -0.080000 0.176000
v 8.219999 0.000000 0.000000
v 14.921700 -0.978813 3.520000
v 15.425982 -0.641862 3.599999
v 14.921700 -0.978813 3.599999
v 15.425982 -0.641862 3.520000
v 0.889400 5.183800 0.000000
v -0.241971 6.315171 3.520000
v 0.214016 6.715061 3.520000
v 1.188035 5.445696 0.000000
v 14.451964 0.627502 0.000000
v 15.881970 -0.241971 3.520000
v 0.000000 3.036599 0.000000
v -1.599999 3.036599 3.520000
v 17.082012 4.236640 3.599999
v 15.012496 4.885164 0.000000
v 14.121699 5.666372 0.000000
v 14.921700 7.052012 3.520000
v 0.627502 1.188035 0.000000
v 15.233172 4.554899 0.000000
v 13.389330 5.969729 0.000000
v -0.641862 5.859182 3.599999
v -0.978813 5.354899 3.599999
v 0.718300 -0.978813 3.599999
v 0.718300 -0.978813 3.520000
v 13.765456 5.842052 0.000000
v 15.233172 1.518299 0.000000
v -0.641862 0.214016 3.520000
v 13.208597 -1.560332 3.599999
v 12.603399 -1.599999 3.599999
v 14.921700 7.052012 3.599999
v 15.425982 6.715061 3.599999
v 3.036599 -1.599999 3.599999
v 2.431402 -1.560332 3.599999
v -1.599999 3.036599 3.599999
v -1.560332 2.431402 3.599999
v 16.281860 0.214016 3.520000
v 15.012496 1.188035 0.000000
v 15.881970 6.315171 3.599999
v 16.887058 4.810949 3.599999
v 16.887058 4.810949 3.520000
v -1.560332 3.641797 3.599999
v 14.750600 0.889400 0.000000
v 3.036599 7.673200 3.599999
v 12.603399 7.673200 3.599999
v 3.036599 7.673200 3.520000
v 2.431402 7.633533 3.599999
v 2.431402 7.633533 3.520000
v -0.641862 0.214016 3.599999
v 1.874543 0.231147 0.000000
v 16.618813 0.718300 3.599999
v 16.618813 0.718300 3.520000
v 8.219999 6.153199 0.176000
v 8.219999 6.073199 0.000000
v 7.419999 6.153199 0.176000
v 3.036599 6.073199 0.000000
v 7.419999 6.073199 0.000000
v 1.518299 0.406827 0.000000
v 2.250669 5.969729 0.000000
v 2.640244 6.047221 0.000000
v 16.281860 0.214016 3.599999
v 15.881970 -0.241971 3.599999
v 1.836559 7.515211 3.599999
v 1.262250 7.320259 3.599999
v 0.718300 7.052012 3.599999
v 0.214016 6.715061 3.599999
v -0.241971 6.315171 3.599999
v 14.121699 0.406827 0.000000
v 13.765456 0.231147 0.000000
v 8.219999 6.153199 1.099999
v 8.219999 -0.080000 1.099999
v 7.419999 -0.080000 1.099999
v 7.419999 6.153199 1.099999
vn 0.8624 -0.2927 -0.4131
vn 0.3214 -0.9469 -0.0000
vn 0.8932 -0.1777 -0.4131
vn 0.1777 -0.8932 -0.4131
vn 0.6005 0.6847 -0.4131
vn 0.8315 0.5556 -0.0000
vn -0.3214 -0.9469 -0.0000
vn 0.8624 0.2927 -0.4131
vn 0.8932 0.1777 -0.4131
vn -0.8932 0.1777 -0.4131
vn 0.3214 0.9469 -0.0000
vn -0.1777 -0.8932 -0.4131
vn -0.8168 0.4028 -0.4131
vn -0.9469 -0.3214 -0.0000
vn 0.1777 0.8932 -0.4131
vn -0.8969 -0.4423 -0.0000
vn -0.7572 0.5060 -0.4131
vn -0.4028 0.8168 -0.4131
vn -0.8168 -0.4028 -0.4131
vn -0.6005 -0.6847 -0.4131
vn 0.0596 0.9088 -0.4131
vn -0.6593 -0.7518 -0.0000
vn 0.9469 -0.3214 -0.0000
vn -0.0596 -0.9088 -0.4131
vn 0.0596 -0.9087 -0.4131
vn 0.9979 0.0654 -0.0000
vn 0.0596 0.9087 -0.4131
vn 0.9088 -0.0596 -0.4131
vn -0.2927 0.8624 -0.4131
vn 0.9808 -0.1951 -0.0000
vn -0.9469 0.3214 -0.0000
vn -0.8932 -0.1777 -0.4131
vn 0.1951 0.9808 -0.0000
vn -0.0000 -0.9104 -0.4138
vn 0.5556 -0.8315 -0.0000
vn -0.6005 0.6847 -0.4131
vn 0.0596 -0.9088 -0.4131
vn 0.6005 -0.6847 -0.4131
vn -0.9088 0.0596 -0.4131
vn 0.9808 0.1951 -0.0000
vn 0.6847 0.6005 -0.4131
vn 0.9088 0.0596 -0.4131
vn 0.5060 0.7572 -0.4131
vn -0.6847 -0.6005 -0.4131
vn -0.8624 -0.2927 -0.4131
vn 0.7572 0.5060 -0.4131
vn -0.8315 0.5556 -0.0000
vn -0.5556 -0.8315 -0.0000
vn 0.2927 0.8624 -0.4131
vn 0.8168 -0.4028 -0.4131
vn 0.0654 -0.9979 -0.0000
vn 0.4028 0.8168 -0.4131
vn 0.5556 0.8315 -0.0000
vn -0.8969 0.4423 -0.0000
vn -0.0654 -0.9979 -0.0000
vn -0.9979 -0.0654 -0.0000
vn 0.1951 -0.9808 -0.0000
vn 0.8168 0.4028 -0.4131
vn 0.7572 -0.5060 -0.4131
vn 0.6593 0.7518 -0.0000
vn -0.8624 0.2927 -0.4131
vn 0.8969 0.4423 -0.0000
vn -0.9808 0.1951 -0.0000
vn -0.7572 -0.5060 -0.4131
vn 0.6847 -0.6005 -0.4131
vn -0.0000 1.0000 -0.0000
vn -0.0654 0.9979 -0.0000
vn 0.0654 0.9979 -0.0000
vn -0.9088 -0.0596 -0.4131
vn -0.7518 -0.6593 -0.0000
vn -0.2927 -0.8624 -0.4131
vn 0.9469 0.3214 -0.0000
vn 0.8969 -0.4423 -0.0000
vn -0.0000 0.9104 -0.4138
vn 0.9979 -0.0654 -0.0000
vn -0.4028 -0.8168 -0.4131
vn -0.5060 -0.7572 -0.4131
vn -0.1777 0.8932 -0.4131
vn -0.5060 0.7572 -0.4131
vn -0.9808 -0.1951 -0.0000
vn -0.0000 -1.0000 -0.0000
vn 0.2927 -0.8624 -0.4131
vn -0.4423 -0.8969 -0.0000
vn 0.8315 -0.5556 -0.0000
vn -0.0000 -0.0000 1.0000
vn -0.0596 0.9088 -0.4131
vn -0.6847 0.6005 -0.4131
vn 0.4423 0.8969 -0.0000
vn 0.7518 0.6593 -0.0000
vn -0.1951 -0.9808 -0.0000
vn -0.0000 -0.0000 -1.0000
vn -0.7518 0.6593 -0.0000
vn 0.4028 -0.8168 -0.4131
vn 0.6593 -0.7518 -0.0000
vn -0.9979 0.0654 -0.0000
vn -0.4423 0.8969 -0.0000
vn -0.3214 0.9469 -0.0000
vn 0.5060 -0.7572 -0.4131
vn 0.7518 -0.6593 -0.0000
vn -0.8315 -0.5556 -0.0000
vn -0.6593 0.7518 -0.0000
vn -0.1951 0.9808 -0.0000
vn -0.5556 0.8315 -0.0000
vn 0.4423 -0.8969 -0.0000
vn -1.0000 -0.0000 -0.0000
vn 1.0000 -0.0000 -0.0000
s 0
f 1//1 2//1 3//1
f 4//2 5//2 6//2
f 5//2 4//2 7//2
f 3//3 8//3 9//3
f 10//4 11//4 12//4
f 13//5 14//5 15//5
f 16//6 17//6 18//6
f 17//6 16//6 19//6
f 20//7 21//7 22//7
f 21//7 20//7 23//7
f 24//8 25//8 26//8
f 27//9 24//9 26//9
f 28//10 29//10 30//10
f 31//11 32//11 33//11
f 32//11 31//11 34//11
f 35//12 23//12 36//12
f 37//13 38//13 39//13
f 40//14 41//14 42//14
f 41//14 40//14 43//14
f 34//15 44//15 45//15
f 46//16 43//16 40//16
f 43//16 46//16 47//16
f 48//17 38//17 49//17
f 50//18 51//18 52//18
f 3//1 2//1 53//1
f 54//19 40//19 55//19
f 56//20 57//20 58//20
f 44//21 59//21 45//21
f 57//22 60//22 61//22
f 60//22 57//22 56//22
f 62//23 3//23 63//23
f 3//23 62//23 1//23
f 46//19 40//19 54//19
f 64//5 14//5 13//5
f 65//24 66//24 67//24
f 11//25 68//25 69//25
f 70//26 71//26 72//26
f 71//26 70//26 73//26
f 44//27 74//27 59//27
f 37//13 75//13 38//13
f 73//28 8//28 76//28
f 77//29 52//29 78//29
f 63//30 9//30 79//30
f 9//30 63//30 3//30
f 80//31 81//31 75//31
f 81//31 80//31 82//31
f 58//20 57//20 83//20
f 84//32 85//32 86//32
f 34//33 87//33 32//33
f 87//33 34//33 45//33
f 65//34 88//34 68//34
f 67//34 88//34 65//34
f 88//34 67//34 89//34
f 90//34 68//34 88//34
f 69//34 90//34 91//34
f 90//34 69//34 68//34
f 92//35 93//35 94//35
f 93//35 92//35 95//35
f 96//36 97//36 98//36
f 10//37 68//37 11//37
f 96//36 98//36 99//36
f 95//38 100//38 101//38
f 102//39 103//39 28//39
f 72//40 26//40 104//40
f 26//40 72//40 71//40
f 105//41 64//41 13//41
f 76//42 27//42 73//42
f 15//43 106//43 107//43
f 83//44 57//44 108//44
f 55//45 40//45 84//45
f 109//46 105//46 17//46
f 110//15 44//15 34//15
f 38//47 111//47 49//47
f 111//47 38//47 112//47
f 56//48 113//48 60//48
f 113//48 56//48 114//48
f 31//49 115//49 34//49
f 9//28 8//28 73//28
f 1//50 116//50 2//50
f 57//44 117//44 108//44
f 68//51 118//51 119//51
f 118//51 68//51 10//51
f 106//52 115//52 107//52
f 15//53 120//53 121//53
f 120//53 15//53 107//53
f 75//54 112//54 38//54
f 112//54 75//54 81//54
f 17//41 105//41 13//41
f 35//55 122//55 123//55
f 122//55 35//55 65//55
f 65//24 35//24 66//24
f 85//56 124//56 103//56
f 124//56 85//56 125//56
f 30//10 29//10 80//10
f 10//57 6//57 118//57
f 6//57 10//57 4//57
f 4//4 10//4 12//4
f 25//58 109//58 19//58
f 19//46 109//46 17//46
f 126//59 127//59 116//59
f 13//60 121//60 128//60
f 121//60 13//60 15//60
f 30//61 75//61 37//61
f 129//62 19//62 16//62
f 19//62 129//62 130//62
f 3//3 53//3 8//3
f 29//63 82//63 80//63
f 82//63 29//63 131//63
f 115//49 110//49 34//49
f 108//64 117//64 54//64
f 126//65 132//65 127//65
f 59//66 133//66 134//66
f 133//66 59//66 135//66
f 135//67 136//67 133//67
f 136//67 135//67 137//67
f 45//68 134//68 87//68
f 134//68 45//68 59//68
f 30//61 80//61 75//61
f 85//69 103//69 86//69
f 57//70 138//70 117//70
f 138//70 57//70 61//70
f 26//8 25//8 130//8
f 36//71 20//71 139//71
f 104//72 130//72 129//72
f 130//72 104//72 26//72
f 140//73 1//73 62//73
f 1//73 140//73 141//73
f 59//74 142//74 135//74
f 74//74 142//74 59//74
f 142//74 74//74 143//74
f 144//74 135//74 142//74
f 145//74 144//74 146//74
f 144//74 145//74 135//74
f 79//75 73//75 70//75
f 73//75 79//75 9//75
f 139//76 20//76 147//76
f 39//17 38//17 48//17
f 147//77 56//77 58//77
f 148//78 78//78 149//78
f 99//79 98//79 50//79
f 42//80 125//80 85//80
f 125//80 42//80 41//80
f 126//59 116//59 141//59
f 141//50 116//50 1//50
f 65//81 119//81 122//81
f 119//81 65//81 68//81
f 4//82 12//82 7//82
f 86//69 103//69 102//69
f 114//83 22//83 113//83
f 22//83 114//83 20//83
f 150//84 141//84 140//84
f 141//84 150//84 126//84
f 149//78 78//78 137//78
f 50//18 52//18 77//18
f 35//12 36//12 66//12
f 14//43 106//43 15//43
f 72//85 79//85 70//85
f 104//85 79//85 72//85
f 104//85 63//85 79//85
f 129//85 63//85 104//85
f 129//85 62//85 63//85
f 16//85 62//85 129//85
f 16//85 140//85 62//85
f 18//85 140//85 16//85
f 18//85 150//85 140//85
f 128//85 150//85 18//85
f 128//85 151//85 150//85
f 121//85 151//85 128//85
f 121//85 93//85 151//85
f 120//85 93//85 121//85
f 120//85 94//85 93//85
f 33//85 94//85 120//85
f 33//85 5//85 94//85
f 32//85 5//85 33//85
f 32//85 6//85 5//85
f 87//85 6//85 32//85
f 87//85 118//85 6//85
f 134//85 118//85 87//85
f 134//85 119//85 118//85
f 133//85 119//85 134//85
f 133//85 122//85 119//85
f 136//85 122//85 133//85
f 136//85 123//85 122//85
f 152//85 123//85 136//85
f 152//85 21//85 123//85
f 153//85 21//85 152//85
f 153//85 22//85 21//85
f 154//85 22//85 153//85
f 154//85 113//85 22//85
f 155//85 113//85 154//85
f 155//85 60//85 113//85
f 156//85 60//85 155//85
f 156//85 61//85 60//85
f 111//85 61//85 156//85
f 111//85 138//85 61//85
f 112//85 138//85 111//85
f 112//85 47//85 138//85
f 81//85 47//85 112//85
f 81//85 43//85 47//85
f 82//85 43//85 81//85
f 82//85 41//85 43//85
f 131//85 41//85 82//85
f 131//85 125//85 41//85
f 125//85 131//85 124//85
f 149//86 137//86 135//86
f 145//86 149//86 135//86
f 48//87 97//87 96//87
f 48//87 49//87 97//87
f 77//29 78//29 148//29
f 71//9 27//9 26//9
f 73//42 27//42 71//42
f 107//52 115//52 31//52
f 107//88 33//88 120//88
f 33//88 107//88 31//88
f 18//89 13//89 128//89
f 13//89 18//89 17//89
f 130//58 25//58 19//58
f 23//90 123//90 21//90
f 123//90 23//90 35//90
f 23//71 20//71 36//71
f 8//91 27//91 76//91
f 53//91 27//91 8//91
f 53//91 24//91 27//91
f 2//91 24//91 53//91
f 2//91 25//91 24//91
f 116//91 25//91 2//91
f 116//91 109//91 25//91
f 127//91 109//91 116//91
f 127//91 105//91 109//91
f 132//91 105//91 127//91
f 132//91 64//91 105//91
f 100//91 64//91 132//91
f 100//91 14//91 64//91
f 157//91 14//91 100//91
f 157//91 106//91 14//91
f 158//91 106//91 157//91
f 158//91 115//91 106//91
f 12//91 115//91 158//91
f 12//91 110//91 115//91
f 11//91 110//91 12//91
f 11//91 44//91 110//91
f 69//91 44//91 11//91
f 69//91 74//91 44//91
f 91//91 74//91 69//91
f 74//91 91//91 143//91
f 67//91 146//91 89//91
f 67//91 145//91 146//91
f 66//91 145//91 67//91
f 66//91 149//91 145//91
f 36//91 149//91 66//91
f 36//91 148//91 149//91
f 139//91 148//91 36//91
f 139//91 77//91 148//91
f 147//91 77//91 139//91
f 147//91 50//91 77//91
f 58//91 50//91 147//91
f 58//91 99//91 50//91
f 83//91 99//91 58//91
f 83//91 96//91 99//91
f 108//91 96//91 83//91
f 108//91 48//91 96//91
f 54//91 48//91 108//91
f 54//91 39//91 48//91
f 55//91 39//91 54//91
f 55//91 37//91 39//91
f 84//91 37//91 55//91
f 84//91 30//91 37//91
f 86//91 30//91 84//91
f 86//91 28//91 30//91
f 28//91 86//91 102//91
f 49//92 156//92 97//92
f 156//92 49//92 111//92
f 7//82 12//82 158//82
f 7//93 158//93 92//93
f 42//32 85//32 84//32
f 95//94 151//94 93//94
f 151//94 95//94 101//94
f 28//39 103//39 29//39
f 103//95 131//95 29//95
f 131//95 103//95 124//95
f 52//96 154//96 153//96
f 154//96 52//96 51//96
f 78//97 153//97 152//97
f 153//97 78//97 52//97
f 114//77 56//77 147//77
f 20//76 114//76 147//76
f 92//98 100//98 95//98
f 151//99 126//99 150//99
f 126//99 151//99 101//99
f 40//45 42//45 84//45
f 117//64 46//64 54//64
f 117//100 47//100 46//100
f 47//100 117//100 138//100
f 92//93 158//93 157//93
f 98//101 156//101 155//101
f 156//101 98//101 97//101
f 92//98 157//98 100//98
f 101//38 100//38 132//38
f 101//65 132//65 126//65
f 137//102 152//102 136//102
f 152//102 137//102 78//102
f 50//79 98//79 51//79
f 51//103 155//103 154//103
f 155//103 51//103 98//103
f 7//104 94//104 5//104
f 94//104 7//104 92//104
f 143//105 159//105 142//105
f 91//105 159//105 143//105
f 160//105 91//105 90//105
f 91//105 160//105 159//105
f 161//91 159//91 160//91
f 159//91 161//91 162//91
f 162//106 146//106 144//106
f 162//106 89//106 146//106
f 161//106 89//106 162//106
f 89//106 161//106 88//106
f 144//81 159//81 162//81
f 159//81 144//81 142//81
f 90//66 161//66 160//66
f 161//66 90//66 88//66
