<?xml version="1.0" encoding="UTF-8"?>
<svg xmlns="http://www.w3.org/2000/svg" viewBox="0 0 64 48" width="64" height="48" role="img" aria-label="Oil pressure telltale">
  <title>Oil pressure telltale</title>
  <!-- Traced / redrawn from OEM AP1 lamp-strip plates in refs/oem/plates/.
       White on transparent; tinted at draw time. Not Honda Motor Co. artwork. -->
  <g fill="#fff">
    <path d="M6.8 26c0-5 3.6-9 10-9H20v4h-3.6c-3.2 0-5.2 2.2-5.2 5s2 5 5.2 5H20v4h-3.2C10.4 35 6.8 31 6.8 26z"/>
    <rect x="18.4" y="17.4" width="22.6" height="18" rx="1.2"/>
    <path d="M41.8 17.2 54.6 6.4l4.6 4.6-10.2 8.4v15.4h-7.2z"/>
    <path d="M55.6 14.8c0 3.4 2.4 6 4.6 6s4.6-2.6 4.6-6c0-2.8-2.2-5.4-4.6-8.2-2.4 2.8-4.6 5.4-4.6 8.2z"/>
  </g>
</svg>
